<svg xmlns="http://www.w3.org/2000/svg" xmlns:xlink="http://www.w3.org/1999/xlink" xmlns:lucid="lucid" width="1378.54" height="860"><g transform="translate(0 0)" lucid:page-tab-id="0_0"><path d="M142.96 470h124.96" stroke="#979ea8" stroke-width="3" fill="none"/><path d="M143 471.5h-1.54v-3H143z" stroke="#979ea8" stroke-width=".05" fill="#979ea8"/><path d="M283.68 470l-14.26 4.64v-9.28z" stroke="#979ea8" stroke-width="3" fill="#979ea8"/><path d="M592.96 470H605a15 15 0 0 0 15-15v-38.54a15 15 0 0 0-15-15H455a15 15 0 0 1-15-15v-4.38" stroke="#979ea8" stroke-width="3" fill="none"/><path d="M593 471.5h-1.53v-3H593z" stroke="#979ea8" stroke-width=".05" fill="#979ea8"/><path d="M440 366.32l4.64 14.26h-9.28z" stroke="#979ea8" stroke-width="3" fill="#979ea8"/><path d="M592.96 470h204.96" stroke="#979ea8" stroke-width="3" fill="none"/><path d="M593 471.5h-1.53v-3H593z" stroke="#979ea8" stroke-width=".05" fill="#979ea8"/><path d="M813.68 470l-14.26 4.64v-9.28z" stroke="#979ea8" stroke-width="3" fill="#979ea8"/><path d="M592.96 470H605a15 15 0 0 1 15 15v50a15 15 0 0 0 15 15h162.92" stroke="#979ea8" stroke-width="3" fill="none"/><path d="M593 471.5h-1.53v-3H593z" stroke="#979ea8" stroke-width=".05" fill="#979ea8"/><path d="M813.68 550l-14.26 4.64v-9.28z" stroke="#979ea8" stroke-width="3" fill="#979ea8"/><path d="M178.54 220V26a6 6 0 0 1 6-6h54v200zM178.54 220h60v400h-60zM238.54 840h-54a6 6 0 0 1-6-6V620h60z" stroke="#5e5e5e" stroke-width="3" fill="#fff"/><path d="M238.54 20h1114a6 6 0 0 1 6 6v194h-1120zM238.54 220h1120v400h-1120zM1358.54 620v214a6 6 0 0 1-6 6h-1114V620z" stroke="#5e5e5e" stroke-width="3" fill="none"/><use xlink:href="#a" transform="matrix(-1.8369701987210297e-16,-1,1,-1.8369701987210297e-16,178.53658674417034,220) translate(48.74444444444444 39.33333333333333)"/><use xlink:href="#b" transform="matrix(-1.8369701987210297e-16,-1,1,-1.8369701987210297e-16,178.53658674417034,220) translate(106.8111111111111 39.33333333333333)"/><use xlink:href="#c" transform="matrix(-1.8369701987210297e-16,-1,1,-1.8369701987210297e-16,178.53658674417034,220) translate(129.03333333333333 39.33333333333333)"/><use xlink:href="#d" transform="matrix(-1.8369701987210297e-16,-1,1,-1.8369701987210297e-16,178.53658674417036,620) translate(133.33333333333331 39.33333333333333)"/><use xlink:href="#e" transform="matrix(-1.8369701987210297e-16,-1,1,-1.8369701987210297e-16,178.53658674417036,620) translate(155.55555555555554 39.33333333333333)"/><use xlink:href="#f" transform="matrix(-1.8369701987210297e-16,-1,1,-1.8369701987210297e-16,178.53658674417036,620) translate(177.77777777777777 39.33333333333333)"/><use xlink:href="#g" transform="matrix(-1.8369701987210297e-16,-1,1,-1.8369701987210297e-16,178.53658674417036,620) translate(199.99999999999997 39.33333333333333)"/><use xlink:href="#h" transform="matrix(-1.8369701987210297e-16,-1,1,-1.8369701987210297e-16,178.53658674417036,620) translate(222.2222222222222 39.33333333333333)"/><use xlink:href="#i" transform="matrix(-1.8369701987210297e-16,-1,1,-1.8369701987210297e-16,178.53658674417036,620) translate(244.44444444444443 39.33333333333333)"/><use xlink:href="#j" transform="matrix(-1.8369701987210297e-16,-1,1,-1.8369701987210297e-16,178.53658674417034,840) translate(32.222222222222214 39.33333333333333)"/><use xlink:href="#k" transform="matrix(-1.8369701987210297e-16,-1,1,-1.8369701987210297e-16,178.53658674417034,840) translate(54.444444444444436 39.33333333333333)"/><use xlink:href="#l" transform="matrix(-1.8369701987210297e-16,-1,1,-1.8369701987210297e-16,178.53658674417034,840) translate(76.66666666666666 39.33333333333333)"/><use xlink:href="#f" transform="matrix(-1.8369701987210297e-16,-1,1,-1.8369701987210297e-16,178.53658674417034,840) translate(98.88888888888887 39.33333333333333)"/><use xlink:href="#g" transform="matrix(-1.8369701987210297e-16,-1,1,-1.8369701987210297e-16,178.53658674417034,840) translate(121.1111111111111 39.33333333333333)"/><use xlink:href="#h" transform="matrix(-1.8369701987210297e-16,-1,1,-1.8369701987210297e-16,178.53658674417034,840) translate(143.33333333333331 39.33333333333333)"/><use xlink:href="#i" transform="matrix(-1.8369701987210297e-16,-1,1,-1.8369701987210297e-16,178.53658674417034,840) translate(165.55555555555554 39.33333333333333)"/><path d="M260 266a6 6 0 0 1 6-6h348a6 6 0 0 1 6 6v88a6 6 0 0 1-6 6H266a6 6 0 0 1-6-6z" stroke="#5e5e5e" stroke-width="3" fill="#fff"/><use xlink:href="#m" transform="matrix(1,0,0,1,265,265) translate(39.28000000000006 42.308333333333316)"/><use xlink:href="#n" transform="matrix(1,0,0,1,265,265) translate(196.47999999999996 42.308333333333316)"/><use xlink:href="#o" transform="matrix(1,0,0,1,265,265) translate(18.870000000000147 74.04166666666663)"/><use xlink:href="#p" transform="matrix(1,0,0,1,265,265) translate(71.13000000000011 74.04166666666663)"/><use xlink:href="#q" transform="matrix(1,0,0,1,265,265) translate(91.1300000000001 74.04166666666663)"/><use xlink:href="#r" transform="matrix(1,0,0,1,265,265) translate(111.13000000000008 74.04166666666663)"/><use xlink:href="#s" transform="matrix(1,0,0,1,265,265) translate(131.13000000000005 74.04166666666663)"/><use xlink:href="#t" transform="matrix(1,0,0,1,265,265) translate(151.13000000000005 74.04166666666663)"/><use xlink:href="#u" transform="matrix(1,0,0,1,265,265) translate(171.13000000000002 74.04166666666663)"/><use xlink:href="#v" transform="matrix(1,0,0,1,265,265) translate(191.13 74.04166666666663)"/><use xlink:href="#w" transform="matrix(1,0,0,1,265,265) translate(211.12999999999997 74.04166666666663)"/><use xlink:href="#x" transform="matrix(1,0,0,1,265,265) translate(231.12999999999994 74.04166666666663)"/><use xlink:href="#y" transform="matrix(1,0,0,1,265,265) translate(251.1299999999999 74.04166666666663)"/><use xlink:href="#z" transform="matrix(1,0,0,1,265,265) translate(271.1299999999999 74.04166666666663)"/><use xlink:href="#x" transform="matrix(1,0,0,1,265,265) translate(291.1299999999999 74.04166666666663)"/><use xlink:href="#A" transform="matrix(1,0,0,1,265,265) translate(311.1299999999999 74.04166666666663)"/><path d="M260 76a6 6 0 0 1 6-6h288a6 6 0 0 1 6 6v88a6 6 0 0 1-6 6H266a6 6 0 0 1-6-6z" stroke="#5e5e5e" stroke-width="3" fill="#fff"/><use xlink:href="#B" transform="matrix(1,0,0,1,265,74.99999999999997) translate(43.68000000000005 42.308333333333316)"/><use xlink:href="#C" transform="matrix(1,0,0,1,265,74.99999999999997) translate(121.09333333333335 42.308333333333316)"/><use xlink:href="#D" transform="matrix(1,0,0,1,265,74.99999999999997) translate(184.2133333333333 42.308333333333316)"/><use xlink:href="#o" transform="matrix(1,0,0,1,265,74.99999999999997) translate(48.87000000000009 74.04166666666663)"/><use xlink:href="#E" transform="matrix(1,0,0,1,265,74.99999999999997) translate(101.13000000000005 74.04166666666663)"/><use xlink:href="#F" transform="matrix(1,0,0,1,265,74.99999999999997) translate(121.13000000000004 74.04166666666663)"/><use xlink:href="#w" transform="matrix(1,0,0,1,265,74.99999999999997) translate(141.13000000000002 74.04166666666663)"/><use xlink:href="#G" transform="matrix(1,0,0,1,265,74.99999999999997) translate(161.13 74.04166666666663)"/><use xlink:href="#H" transform="matrix(1,0,0,1,265,74.99999999999997) translate(181.13 74.04166666666663)"/><use xlink:href="#I" transform="matrix(1,0,0,1,265,74.99999999999997) translate(201.12999999999997 74.04166666666663)"/><use xlink:href="#J" transform="matrix(1,0,0,1,265,74.99999999999997) translate(221.12999999999994 74.04166666666663)"/><path d="M820 266a6 6 0 0 1 6-6h288a6 6 0 0 1 6 6v48a6 6 0 0 1-6 6H826a6 6 0 0 1-6-6z" stroke="#979ea8" stroke-width="3" fill="#fff"/><use xlink:href="#K" transform="matrix(1,0,0,1,825,265) translate(16.373333333333477 34.605555555555526)"/><use xlink:href="#L" transform="matrix(1,0,0,1,825,265) translate(80.24666666666675 34.605555555555526)"/><use xlink:href="#M" transform="matrix(1,0,0,1,825,265) translate(104.69111111111117 34.605555555555526)"/><use xlink:href="#N" transform="matrix(1,0,0,1,825,265) translate(158.83555555555554 34.605555555555526)"/><use xlink:href="#O" transform="matrix(1,0,0,1,825,265) translate(216.69555555555547 34.605555555555526)"/><path d="M820 346a6 6 0 0 1 6-6h288a6 6 0 0 1 6 6v48a6 6 0 0 1-6 6H826a6 6 0 0 1-6-6z" stroke="#979ea8" stroke-width="3" fill="#fff"/><use xlink:href="#K" transform="matrix(1,0,0,1,825,345) translate(16.373333333333477 34.605555555555526)"/><use xlink:href="#L" transform="matrix(1,0,0,1,825,345) translate(80.24666666666675 34.605555555555526)"/><use xlink:href="#M" transform="matrix(1,0,0,1,825,345) translate(104.69111111111117 34.605555555555526)"/><use xlink:href="#N" transform="matrix(1,0,0,1,825,345) translate(158.83555555555554 34.605555555555526)"/><use xlink:href="#O" transform="matrix(1,0,0,1,825,345) translate(216.69555555555547 34.605555555555526)"/><path d="M620 76a6 6 0 0 1 6-6h288a6 6 0 0 1 6 6v88a6 6 0 0 1-6 6H626a6 6 0 0 1-6-6z" stroke="#5e5e5e" stroke-width="3" fill="#fff"/><use xlink:href="#P" transform="matrix(1,0,0,1,625,74.99999999999997) translate(10.826666666666739 42.308333333333316)"/><use xlink:href="#C" transform="matrix(1,0,0,1,625,74.99999999999997) translate(153.94666666666666 42.308333333333316)"/><use xlink:href="#D" transform="matrix(1,0,0,1,625,74.99999999999997) translate(217.06666666666663 42.308333333333316)"/><use xlink:href="#o" transform="matrix(1,0,0,1,625,74.99999999999997) translate(8.870000000000147 74.04166666666663)"/><use xlink:href="#w" transform="matrix(1,0,0,1,625,74.99999999999997) translate(61.13000000000011 74.04166666666663)"/><use xlink:href="#Q" transform="matrix(1,0,0,1,625,74.99999999999997) translate(81.1300000000001 74.04166666666663)"/><use xlink:href="#R" transform="matrix(1,0,0,1,625,74.99999999999997) translate(101.13000000000008 74.04166666666663)"/><use xlink:href="#S" transform="matrix(1,0,0,1,625,74.99999999999997) translate(121.13000000000007 74.04166666666663)"/><use xlink:href="#T" transform="matrix(1,0,0,1,625,74.99999999999997) translate(141.13000000000005 74.04166666666663)"/><use xlink:href="#U" transform="matrix(1,0,0,1,625,74.99999999999997) translate(161.13000000000002 74.04166666666663)"/><use xlink:href="#x" transform="matrix(1,0,0,1,625,74.99999999999997) translate(181.13 74.04166666666663)"/><use xlink:href="#y" transform="matrix(1,0,0,1,625,74.99999999999997) translate(201.12999999999997 74.04166666666663)"/><use xlink:href="#z" transform="matrix(1,0,0,1,625,74.99999999999997) translate(221.12999999999994 74.04166666666663)"/><use xlink:href="#x" transform="matrix(1,0,0,1,625,74.99999999999997) translate(241.1299999999999 74.04166666666663)"/><use xlink:href="#A" transform="matrix(1,0,0,1,625,74.99999999999997) translate(261.1299999999999 74.04166666666663)"/><path d="M980 66a6 6 0 0 1 6-6h348a6 6 0 0 1 6 6v108a6 6 0 0 1-6 6H986a6 6 0 0 1-6-6z" stroke="#5e5e5e" stroke-width="3" fill="#fff"/><g><use xlink:href="#V" transform="matrix(1,0,0,1,985,64.99999999999999) translate(1.2800000000000864 37.870833333333316)"/><use xlink:href="#C" transform="matrix(1,0,0,1,985,64.99999999999999) translate(223.4933333333333 37.870833333333316)"/><use xlink:href="#D" transform="matrix(1,0,0,1,985,64.99999999999999) translate(286.6133333333333 37.870833333333316)"/><use xlink:href="#W" transform="matrix(1,0,0,1,985,64.99999999999999) translate(25.000000000000142 69.60416666666663)"/><use xlink:href="#x" transform="matrix(1,0,0,1,985,64.99999999999999) translate(45.00000000000013 69.60416666666663)"/><use xlink:href="#X" transform="matrix(1,0,0,1,985,64.99999999999999) translate(65.00000000000011 69.60416666666663)"/><use xlink:href="#y" transform="matrix(1,0,0,1,985,64.99999999999999) translate(85.00000000000009 69.60416666666663)"/><use xlink:href="#Y" transform="matrix(1,0,0,1,985,64.99999999999999) translate(105.00000000000007 69.60416666666663)"/><use xlink:href="#p" transform="matrix(1,0,0,1,985,64.99999999999999) translate(125.00000000000006 69.60416666666663)"/><use xlink:href="#Z" transform="matrix(1,0,0,1,985,64.99999999999999) translate(145.00000000000006 69.60416666666663)"/><use xlink:href="#aa" transform="matrix(1,0,0,1,985,64.99999999999999) translate(165.00000000000003 69.60416666666663)"/><use xlink:href="#t" transform="matrix(1,0,0,1,985,64.99999999999999) translate(185 69.60416666666663)"/><use xlink:href="#U" transform="matrix(1,0,0,1,985,64.99999999999999) translate(204.99999999999997 69.60416666666663)"/><use xlink:href="#u" transform="matrix(1,0,0,1,985,64.99999999999999) translate(224.99999999999994 69.60416666666663)"/><use xlink:href="#v" transform="matrix(1,0,0,1,985,64.99999999999999) translate(244.99999999999991 69.60416666666663)"/><use xlink:href="#w" transform="matrix(1,0,0,1,985,64.99999999999999) translate(264.9999999999999 69.60416666666663)"/><use xlink:href="#I" transform="matrix(1,0,0,1,985,64.99999999999999) translate(284.9999999999999 69.60416666666663)"/><use xlink:href="#ab" transform="matrix(1,0,0,1,985,64.99999999999999) translate(304.9999999999999 69.60416666666663)"/><use xlink:href="#ac" transform="matrix(1,0,0,1,985,64.99999999999999) translate(17.800000000000153 99.2041666666666)"/><use xlink:href="#ad" transform="matrix(1,0,0,1,985,64.99999999999999) translate(37.80000000000014 99.2041666666666)"/><use xlink:href="#x" transform="matrix(1,0,0,1,985,64.99999999999999) translate(57.80000000000012 99.2041666666666)"/><use xlink:href="#ae" transform="matrix(1,0,0,1,985,64.99999999999999) translate(77.8000000000001 99.2041666666666)"/><use xlink:href="#x" transform="matrix(1,0,0,1,985,64.99999999999999) translate(97.80000000000008 99.2041666666666)"/><use xlink:href="#af" transform="matrix(1,0,0,1,985,64.99999999999999) translate(117.80000000000007 99.2041666666666)"/><use xlink:href="#ag" transform="matrix(1,0,0,1,985,64.99999999999999) translate(137.80000000000007 99.2041666666666)"/><use xlink:href="#ah" transform="matrix(1,0,0,1,985,64.99999999999999) translate(157.80000000000004 99.2041666666666)"/><use xlink:href="#ai" transform="matrix(1,0,0,1,985,64.99999999999999) translate(197.6 99.2041666666666)"/><use xlink:href="#aj" transform="matrix(1,0,0,1,985,64.99999999999999) translate(217.59999999999997 99.2041666666666)"/><use xlink:href="#ag" transform="matrix(1,0,0,1,985,64.99999999999999) translate(237.59999999999994 99.2041666666666)"/><use xlink:href="#ak" transform="matrix(1,0,0,1,985,64.99999999999999) translate(257.5999999999999 99.2041666666666)"/><use xlink:href="#al" transform="matrix(1,0,0,1,985,64.99999999999999) translate(283.39999999999986 99.2041666666666)"/></g><path d="M439.93 256.04l-.07-2.54-.38-4.37-.56-3.9-.72-3.53-.87-3.3-1.03-3.15-1.2-3.1-1.48-3.2-1.87-3.5-2.8-4.6-10.7-16.3-1.87-3.5-1.47-3.2-.78-2.02" stroke="#5e5e5e" stroke-width="5" stroke-linejoin="round" fill="none"/><path d="M442.5 258.54h-5l-.07-2.5 5-.14z" stroke="#5e5e5e" stroke-width=".05" fill="#5e5e5e"/><path d="M411.35 179.44l6.95 13.3-9.14 1.54z" stroke="#5e5e5e" stroke-width="5" fill="#5e5e5e"/><path d="M923.96 120h29.72" stroke="#5e5e5e" stroke-width="5" stroke-linejoin="round" fill="none"/><path d="M924.03 122.5h-2.56v-5h2.56z" stroke="#5e5e5e" stroke-width=".05" fill="#5e5e5e"/><path d="M970.45 120l-14.27 4.64v-9.28z" stroke="#5e5e5e" stroke-width="5" fill="#5e5e5e"/><path d="M563.96 120h29.72" stroke="#5e5e5e" stroke-width="5" stroke-linejoin="round" fill="none"/><path d="M564.03 122.5h-2.56v-5h2.56z" stroke="#5e5e5e" stroke-width=".05" fill="#5e5e5e"/><path d="M610.45 120l-14.27 4.64v-9.28z" stroke="#5e5e5e" stroke-width="5" fill="#5e5e5e"/><path d="M1122.96 290H1145a15 15 0 0 0 15-15v-72.92" stroke="#979ea8" stroke-width="3" fill="none"/><path d="M1123 291.5h-1.53v-3h1.53z" stroke="#979ea8" stroke-width=".05" fill="#979ea8"/><path d="M1160 186.32l4.64 14.26h-9.28z" stroke="#979ea8" stroke-width="3" fill="#979ea8"/><path d="M770 173.96V275a15 15 0 0 0 15 15h8.68" stroke="#5e5e5e" stroke-width="5" fill="none"/><path d="M772.5 174.03h-5v-2.57h5z" stroke="#5e5e5e" stroke-width=".05" fill="#5e5e5e"/><path d="M810.45 290l-14.27 4.64v-9.28z" stroke="#5e5e5e" stroke-width="5" fill="#5e5e5e"/><path d="M770 173.96V355a15 15 0 0 0 15 15h8.68" stroke="#5e5e5e" stroke-width="5" fill="none"/><path d="M772.5 174.03h-5v-2.57h5z" stroke="#5e5e5e" stroke-width=".05" fill="#5e5e5e"/><path d="M810.45 370l-14.27 4.64v-9.28z" stroke="#5e5e5e" stroke-width="5" fill="#5e5e5e"/><path d="M820 666a6 6 0 0 1 6-6h288a6 6 0 0 1 6 6v48a6 6 0 0 1-6 6H826a6 6 0 0 1-6-6z" stroke="#979ea8" stroke-width="3" fill="#fff"/><g><use xlink:href="#K" transform="matrix(1,0,0,1,825,665) translate(4.151111111111277 34.605555555555526)"/><use xlink:href="#am" transform="matrix(1,0,0,1,825,665) translate(68.02444444444455 34.605555555555526)"/><use xlink:href="#an" transform="matrix(1,0,0,1,825,665) translate(92.46888888888897 34.605555555555526)"/><use xlink:href="#ao" transform="matrix(1,0,0,1,825,665) translate(116.91333333333338 34.605555555555526)"/><use xlink:href="#N" transform="matrix(1,0,0,1,825,665) translate(171.05777777777777 34.605555555555526)"/><use xlink:href="#O" transform="matrix(1,0,0,1,825,665) translate(228.9177777777777 34.605555555555526)"/></g><path d="M820 746a6 6 0 0 1 6-6h288a6 6 0 0 1 6 6v48a6 6 0 0 1-6 6H826a6 6 0 0 1-6-6z" stroke="#979ea8" stroke-width="3" fill="#fff"/><g><use xlink:href="#K" transform="matrix(1,0,0,1,825,745) translate(4.151111111111277 34.605555555555526)"/><use xlink:href="#am" transform="matrix(1,0,0,1,825,745) translate(68.02444444444455 34.605555555555526)"/><use xlink:href="#an" transform="matrix(1,0,0,1,825,745) translate(92.46888888888897 34.605555555555526)"/><use xlink:href="#ao" transform="matrix(1,0,0,1,825,745) translate(116.91333333333338 34.605555555555526)"/><use xlink:href="#N" transform="matrix(1,0,0,1,825,745) translate(171.05777777777777 34.605555555555526)"/><use xlink:href="#O" transform="matrix(1,0,0,1,825,745) translate(228.9177777777777 34.605555555555526)"/></g><path d="M770 173.96V675a15 15 0 0 0 15 15h8.68" stroke="#5e5e5e" stroke-width="5" fill="none"/><path d="M772.5 174.03h-5v-2.57h5z" stroke="#5e5e5e" stroke-width=".05" fill="#5e5e5e"/><path d="M810.45 690l-14.27 4.64v-9.28z" stroke="#5e5e5e" stroke-width="5" fill="#5e5e5e"/><path d="M770 173.96V755a15 15 0 0 0 15 15h8.68" stroke="#5e5e5e" stroke-width="5" fill="none"/><path d="M772.5 174.03h-5v-2.57h5z" stroke="#5e5e5e" stroke-width=".05" fill="#5e5e5e"/><path d="M810.45 770l-14.27 4.64v-9.28z" stroke="#5e5e5e" stroke-width="5" fill="#5e5e5e"/><path d="M1122.96 370H1145a15 15 0 0 0 15-15V202.08" stroke="#979ea8" stroke-width="3" fill="none"/><path d="M1123 371.5h-1.53v-3h1.53z" stroke="#979ea8" stroke-width=".05" fill="#979ea8"/><path d="M1160 186.32l4.64 14.26h-9.28z" stroke="#979ea8" stroke-width="3" fill="#979ea8"/><path d="M1122.96 690H1145a15 15 0 0 0 15-15V202.08" stroke="#979ea8" stroke-width="3" fill="none"/><path d="M1123 691.5h-1.53v-3h1.53z" stroke="#979ea8" stroke-width=".05" fill="#979ea8"/><path d="M1160 186.32l4.64 14.26h-9.28z" stroke="#979ea8" stroke-width="3" fill="#979ea8"/><path d="M1122.96 770H1145a15 15 0 0 0 15-15V202.08" stroke="#979ea8" stroke-width="3" fill="none"/><path d="M1123 771.5h-1.53v-3h1.53z" stroke="#979ea8" stroke-width=".05" fill="#979ea8"/><path d="M1160 186.32l4.64 14.26h-9.28z" stroke="#979ea8" stroke-width="3" fill="#979ea8"/><path d="M820 446a6 6 0 0 1 6-6h288a6 6 0 0 1 6 6v48a6 6 0 0 1-6 6H826a6 6 0 0 1-6-6z" stroke="#979ea8" stroke-width="3" fill="#fff"/><g><use xlink:href="#ap" transform="matrix(1,0,0,1,825,445.00000000000006) translate(19.0866666666668 34.605555555555526)"/><use xlink:href="#aq" transform="matrix(1,0,0,1,825,445.00000000000006) translate(43.531111111111215 34.605555555555526)"/><use xlink:href="#ar" transform="matrix(1,0,0,1,825,445.00000000000006) translate(67.97555555555564 34.605555555555526)"/><use xlink:href="#as" transform="matrix(1,0,0,1,825,445.00000000000006) translate(166.19333333333333 34.605555555555526)"/></g><path d="M820 526a6 6 0 0 1 6-6h288a6 6 0 0 1 6 6v48a6 6 0 0 1-6 6H826a6 6 0 0 1-6-6z" stroke="#979ea8" stroke-width="3" fill="#fff"/><g><use xlink:href="#ap" transform="matrix(1,0,0,1,825,525) translate(19.0866666666668 34.605555555555526)"/><use xlink:href="#aq" transform="matrix(1,0,0,1,825,525) translate(43.531111111111215 34.605555555555526)"/><use xlink:href="#ar" transform="matrix(1,0,0,1,825,525) translate(67.97555555555564 34.605555555555526)"/><use xlink:href="#as" transform="matrix(1,0,0,1,825,525) translate(166.19333333333333 34.605555555555526)"/></g><path d="M290 446a6 6 0 0 1 6-6h288a6 6 0 0 1 6 6v48a6 6 0 0 1-6 6H296a6 6 0 0 1-6-6z" stroke="#979ea8" stroke-width="3" fill="#fff"/><g><use xlink:href="#at" transform="matrix(1,0,0,1,295,445.00000000000006) translate(6.008888888889061 34.605555555555526)"/><use xlink:href="#as" transform="matrix(1,0,0,1,295,445.00000000000006) translate(179.27111111111105 34.605555555555526)"/></g><path d="M20 426a6 6 0 0 1 6-6h108a6 6 0 0 1 6 6v88a6 6 0 0 1-6 6H26a6 6 0 0 1-6-6z" stroke="#979ea8" stroke-width="3" fill="#fff"/><g><use xlink:href="#au" transform="matrix(1,0,0,1,25,425.00000000000006) translate(8.311111111111167 36.793055555555526)"/><use xlink:href="#av" transform="matrix(1,0,0,1,25,425.00000000000006) translate(52.800000000000004 36.793055555555526)"/><use xlink:href="#aw" transform="matrix(1,0,0,1,25,425.00000000000006) translate(77.24444444444441 36.793055555555526)"/><use xlink:href="#ax" transform="matrix(1,0,0,1,25,425.00000000000006) translate(2.6400000000000574 72.97083333333326)"/></g><path d="M240 26a6 6 0 0 1 6-6h469.46a6 6 0 0 1 6 6v28a6 6 0 0 1-6 6H246a6 6 0 0 1-6-6z" stroke="#000" stroke-opacity="0" stroke-width="3" fill="#fff" fill-opacity="0"/><g><use xlink:href="#ay" transform="matrix(1,0,0,1,245,25) translate(0 25.777777777777775)"/></g><path d="M240 226a6 6 0 0 1 6-6h469.46a6 6 0 0 1 6 6v28a6 6 0 0 1-6 6H246a6 6 0 0 1-6-6z" stroke="#000" stroke-opacity="0" stroke-width="3" fill="#fff" fill-opacity="0"/><g><use xlink:href="#az" transform="matrix(1,0,0,1,245,225) translate(0 25.777777777777775)"/><use xlink:href="#aA" transform="matrix(1,0,0,1,245,225) translate(122.64444444444445 25.777777777777775)"/><use xlink:href="#aB" transform="matrix(1,0,0,1,245,225) translate(144.86666666666667 25.777777777777775)"/><use xlink:href="#aC" transform="matrix(1,0,0,1,245,225) translate(167.0888888888889 25.777777777777775)"/><use xlink:href="#aD" transform="matrix(1,0,0,1,245,225) translate(316.44444444444446 25.777777777777775)"/><use xlink:href="#e" transform="matrix(1,0,0,1,245,225) translate(338.6666666666667 25.777777777777775)"/><use xlink:href="#aE" transform="matrix(1,0,0,1,245,225) translate(360.8888888888889 25.777777777777775)"/><use xlink:href="#aF" transform="matrix(1,0,0,1,245,225) translate(401.8888888888889 25.777777777777775)"/><use xlink:href="#aG" transform="matrix(1,0,0,1,245,225) translate(424.11111111111114 25.777777777777775)"/></g><path d="M240 626a6 6 0 0 1 6-6h469.46a6 6 0 0 1 6 6v28a6 6 0 0 1-6 6H246a6 6 0 0 1-6-6z" stroke="#000" stroke-opacity="0" stroke-width="3" fill="#fff" fill-opacity="0"/><g><use xlink:href="#az" transform="matrix(1,0,0,1,245,625) translate(0 25.777777777777775)"/><use xlink:href="#aA" transform="matrix(1,0,0,1,245,625) translate(122.64444444444445 25.777777777777775)"/><use xlink:href="#aB" transform="matrix(1,0,0,1,245,625) translate(144.86666666666667 25.777777777777775)"/><use xlink:href="#aH" transform="matrix(1,0,0,1,245,625) translate(167.0888888888889 25.777777777777775)"/><use xlink:href="#aI" transform="matrix(1,0,0,1,245,625) translate(286.15555555555557 25.777777777777775)"/><use xlink:href="#k" transform="matrix(1,0,0,1,245,625) translate(308.3777777777778 25.777777777777775)"/><use xlink:href="#l" transform="matrix(1,0,0,1,245,625) translate(330.6 25.777777777777775)"/><use xlink:href="#aE" transform="matrix(1,0,0,1,245,625) translate(352.82222222222225 25.777777777777775)"/><use xlink:href="#aF" transform="matrix(1,0,0,1,245,625) translate(393.82222222222225 25.777777777777775)"/><use xlink:href="#aG" transform="matrix(1,0,0,1,245,625) translate(416.0444444444445 25.777777777777775)"/></g><defs><path fill="#333" d="M191-298h222c-37-120-75-237-109-360h-4c-33 124-71 241-109 360zM506 0l-70-224H168L97 0H3l249-733h103L604 0h-98" id="aJ"/><path fill="#333" d="M263 13c-116 0-155-72-155-181v-301H27v-69l85-5 11-152h76v152h147v74H199v303c0 67 21 105 84 105 19 0 44-7 62-14l18 68c-31 10-67 20-100 20" id="aK"/><path fill="#333" d="M234 13C157 13 83-19 31-62l45-60c47 38 96 64 161 64 72 0 107-38 107-85 0-55-64-80-124-103-76-28-162-65-162-157 0-86 69-154 187-154 67 0 126 28 169 61l-44 59c-38-28-76-48-125-48-68 0-99 36-99 78 0 52 59 71 120 94 79 30 166 62 166 165 0 88-70 161-198 161" id="aL"/><path fill="#333" d="M100 0v-733h423v78H193v230h278v79H193v267h341V0H100" id="aM"/><path fill="#333" d="M17 0l214-379L31-733h102c54 101 102 192 158 294h4c48-106 98-194 150-294h97L342-374 556 0H454c-59-108-112-205-171-316h-4C225-203 171-108 114 0H17" id="aN"/><g id="a"><use transform="matrix(0.022222222222222223,0,0,0.022222222222222223,0,0)" xlink:href="#aJ"/><use transform="matrix(0.022222222222222223,0,0,0.022222222222222223,13.488888888888889,0)" xlink:href="#aK"/><use transform="matrix(0.022222222222222223,0,0,0.022222222222222223,21.866666666666667,0)" xlink:href="#aL"/><use transform="matrix(0.022222222222222223,0,0,0.022222222222222223,32.266666666666666,0)" xlink:href="#aM"/><use transform="matrix(0.022222222222222223,0,0,0.022222222222222223,45.33333333333333,0)" xlink:href="#aN"/></g><path fill="#333" d="M849 9h-90c1-11 1-32 2-56-199 2-411-4-602 4v-90c188 10 405 2 602 5v-472c-195 1-400-3-589 3v-89c215 12 453 4 676 4-5 223-6 469 1 691" id="aO"/><use transform="matrix(0.022222222222222223,0,0,0.022222222222222223,0,0)" xlink:href="#aO" id="b"/><path fill="#333" d="M442-544h90c0 271-24 454-279 581l-73-60c27-9 61-25 89-44 174-110 184-270 173-477zm440-179l49 47c-7 10-20 25-27 36-40 68-135 197-249 276l-66-53c92-54 186-162 218-224-227 3-465-7-683 6v-90c215 17 460 4 688 8 19 0 55-3 70-6" id="aP"/><use transform="matrix(0.022222222222222223,0,0,0.022222222222222223,0,0)" xlink:href="#aP" id="c"/><path fill="#333" d="M540-355v107h245v-107H540zm-325 0v107h245v-107H215zm245-157H215v100h245v-100zm80 0v100h245v-100H540zM57-718h403v-99h80v99h403v63H540v83h320v384H540v90h413v63H540V97h-80V-35H47v-63h413v-90H140v-384h320v-83H57v-63" id="aQ"/><use transform="matrix(0.022222222222222223,0,0,0.022222222222222223,0,0)" xlink:href="#aQ" id="d"/><path fill="#333" d="M940-694H529v132h364V-9c0 43-10 64-41 75-32 12-85 12-163 11-4-18-15-48-25-66 60 2 117 2 135 1 17-1 21-6 21-21v-483H529v309h124v-228h66v351h-66v-58H339v72h-63v-365h63v228h118v-309H181V78h-71v-640h347v-132H61v-72h879v72" id="aR"/><use transform="matrix(0.022222222222222223,0,0,0.022222222222222223,0,0)" xlink:href="#aR" id="e"/><use transform="matrix(0.022222222222222223,0,0,0.022222222222222223,0,0)" xlink:href="#aP" id="f"/><path fill="#333" d="M871-622l-56 28c-27-52-59-105-93-150l55-26c26 35 70 102 94 148zm-124 53l-57 26c-25-52-56-107-89-152l55-25c26 37 68 104 91 151zM395-761c-9 85-5 176-6 268 132 40 321 111 427 164l-35 85c-108-59-281-125-392-160 2 150-6 305 6 447h-96c13-222 2-468 6-700 0-28-2-73-8-104h98" id="aS"/><use transform="matrix(0.022222222222222223,0,0,0.022222222222222223,0,0)" xlink:href="#aS" id="g"/><path fill="#333" d="M579-602c-3-81-1-113-12-181h93c-9 58-5 119-4 181 81-1 170 4 242-6v84c-78-3-160-1-241-2 3 150 3 349 7 474 4 112-156 76-251 74l-7-82c48 8 104 12 141 12 29 0 37-13 37-40 0-80-1-229-3-363-83 118-258 280-437 375l-57-65c202-99 380-265 459-385-140 1-287-3-423 3v-85c142 13 305 3 456 6" id="aT"/><use transform="matrix(0.022222222222222223,0,0,0.022222222222222223,0,0)" xlink:href="#aT" id="h"/><path fill="#333" d="M227-733c71 47 199 151 255 207l-63 63c-50-52-175-159-249-209zM141-63c175-26 305-87 400-146 154-97 276-245 334-368l48 85C783-252 545-47 194 19" id="aU"/><use transform="matrix(0.022222222222222223,0,0,0.022222222222222223,0,0)" xlink:href="#aU" id="i"/><path fill="#333" d="M638 45C545-81 359-263 229-356l65-52c37 27 119 93 187 154 147-110 262-257 312-347-228 3-472-7-690 6v-90c28 4 67 8 102 8h596c28 0 50-3 64-8l64 51c-10 11-19 22-25 31-72 117-199 280-364 406 60 60 131 135 171 184" id="aV"/><use transform="matrix(0.022222222222222223,0,0,0.022222222222222223,0,0)" xlink:href="#aV" id="j"/><path fill="#333" d="M483-576c17 40 66 172 79 216l-74 26c-11-45-57-172-78-217zM296 7c234-64 436-272 463-554l86 27c-36 132-72 252-157 357C596-46 474 32 362 75zm-45-533c20 43 72 174 91 226l-76 28c-15-52-69-190-89-225" id="aW"/><use transform="matrix(0.022222222222222223,0,0,0.022222222222222223,0,0)" xlink:href="#aW" id="k"/><path fill="#333" d="M871-652c36 0 66-30 66-66s-30-67-66-67c-37 0-66 31-66 67s29 66 66 66zm-741-39c200 12 425 4 634 5-22-76 35-145 107-145 62 0 112 51 112 113 0 74-71 131-150 106-22 112-70 272-151 380C590-115 471-22 288 35l-68-75c194-48 306-133 390-240 71-91 117-230 131-326-202 1-414-3-611 3v-88" id="aX"/><use transform="matrix(0.022222222222222223,0,0,0.022222222222222223,0,0)" xlink:href="#aX" id="l"/><path fill="#333" d="M139 13c-36 0-66-28-66-69s30-71 66-71 66 30 66 71-30 69-66 69" id="aY"/><path fill="#333" d="M377 13C195 13 58-128 58-366c0-237 139-381 325-381 89 0 159 44 201 91l-50 60c-38-41-87-70-150-70-139 0-231 114-231 297 0 185 88 301 228 301 70 0 123-31 170-82l51 58C544-25 472 13 377 13" id="aZ"/><path fill="#333" d="M217 13C126 13 58-43 58-141c0-118 103-177 334-203 0-70-23-137-112-137-63 0-120 29-163 58l-36-63c50-32 127-71 214-71 132 0 188 89 188 223V0h-75l-8-65h-3c-52 43-113 78-180 78zm26-73c53 0 96-25 149-72v-152c-183 22-245 67-245 137 0 62 42 87 96 87" id="ba"/><path fill="#333" d="M241 5C155 32 92-8 92-108v-688h91v694c3 37 15 43 45 37" id="bb"/><path fill="#333" d="M311 13C167 13 51-92 51-271c0-176 119-286 245-286 154-3 234 132 212 307H142c6 116 77 190 180 190 53 0 96-16 136-43l33 60c-48 31-106 56-180 56zM141-315h291c0-110-50-169-135-169-77 0-145 62-156 169" id="bc"/><path fill="#333" d="M92 0v-543h75l8 99h3c50-86 117-137 212-101l-17 80c-18-7-31-9-53-9-45 0-101 32-137 125V0H92" id="bd"/><g id="m"><use transform="matrix(0.026666666666666655,0,0,0.026666666666666655,0,0)" xlink:href="#aJ"/><use transform="matrix(0.026666666666666655,0,0,0.026666666666666655,16.18666666666666,0)" xlink:href="#aK"/><use transform="matrix(0.026666666666666655,0,0,0.026666666666666655,26.239999999999988,0)" xlink:href="#aL"/><use transform="matrix(0.026666666666666655,0,0,0.026666666666666655,38.719999999999985,0)" xlink:href="#aM"/><use transform="matrix(0.026666666666666655,0,0,0.026666666666666655,54.39999999999998,0)" xlink:href="#aN"/><use transform="matrix(0.026666666666666655,0,0,0.026666666666666655,69.67999999999996,0)" xlink:href="#aY"/><use transform="matrix(0.026666666666666655,0,0,0.026666666666666655,77.09333333333329,0)" xlink:href="#aZ"/><use transform="matrix(0.026666666666666655,0,0,0.026666666666666655,94.10666666666661,0)" xlink:href="#ba"/><use transform="matrix(0.026666666666666655,0,0,0.026666666666666655,109.1466666666666,0)" xlink:href="#bb"/><use transform="matrix(0.026666666666666655,0,0,0.026666666666666655,116.74666666666658,0)" xlink:href="#bb"/><use transform="matrix(0.026666666666666655,0,0,0.026666666666666655,124.34666666666658,0)" xlink:href="#bc"/><use transform="matrix(0.026666666666666655,0,0,0.026666666666666655,139.11999999999992,0)" xlink:href="#bd"/></g><path fill="#333" d="M239 197C147 47 92-114 92-311c0-196 55-358 147-507l57 26c-171 284-171 678 0 962" id="be"/><path fill="#333" d="M15 0l179-283L29-543h98c43 70 84 140 127 210h4c39-71 77-140 116-210h95L304-274 483 0H383c-48-73-92-149-138-224h-5C197-151 154-74 111 0H15" id="bf"/><path fill="#333" d="M301-58c70 0 124-67 124-167 0-99-43-162-132-162-46 0-102 26-150 94 11 152 66 235 158 235zm197-614l-50 57c-29-35-73-56-118-56-100 0-185 77-189 305 45-55 109-89 167-89 124 0 203 77 203 230 0 142-96 238-210 238C160 13 56-108 56-350c0-287 129-397 271-397 76 0 131 32 171 75" id="bg"/><path fill="#333" d="M115-275h224c1-122-3-242 6-358h-4c-64 130-151 240-226 358zm408 0v73h-97V0h-87v-202H20v-60l305-471h101v458h97" id="bh"/><path fill="#333" d="M11 179l300-972h66L78 179H11" id="bi"/><path fill="#333" d="M279 13C144 13 45-69 45-182c0-98 68-166 135-202v-5c-54-37-99-92-99-169 0-112 86-186 201-186 125 0 201 80 201 193 0 77-54 143-98 177v5c64 37 124 92 124 192 0 107-92 190-230 190zm50-411c50-44 76-94 76-148 0-72-46-131-125-131-67 0-116 48-116 119 0 88 79 126 165 160zM281-55c84 0 141-51 141-124 0-98-90-135-194-177-59 38-100 96-100 166 0 78 65 135 153 135" id="bj"/><path fill="#333" d="M99 197l-56-27c171-284 171-678 0-962l56-26c93 149 148 311 148 507 0 197-55 358-148 508" id="bk"/><g id="n"><use transform="matrix(0.026666666666666655,0,0,0.026666666666666655,0,0)" xlink:href="#be"/><use transform="matrix(0.026666666666666655,0,0,0.026666666666666655,9.01333333333333,0)" xlink:href="#bf"/><use transform="matrix(0.026666666666666655,0,0,0.026666666666666655,22.293333333333322,0)" xlink:href="#bg"/><use transform="matrix(0.026666666666666655,0,0,0.026666666666666655,37.09333333333332,0)" xlink:href="#bh"/><use transform="matrix(0.026666666666666655,0,0,0.026666666666666655,51.89333333333332,0)" xlink:href="#bi"/><use transform="matrix(0.026666666666666655,0,0,0.026666666666666655,62.346666666666636,0)" xlink:href="#bf"/><use transform="matrix(0.026666666666666655,0,0,0.026666666666666655,75.62666666666664,0)" xlink:href="#bj"/><use transform="matrix(0.026666666666666655,0,0,0.026666666666666655,90.42666666666663,0)" xlink:href="#bg"/><use transform="matrix(0.026666666666666655,0,0,0.026666666666666655,105.22666666666663,0)" xlink:href="#bk"/></g><g id="o"><use transform="matrix(0.019999999999999983,0,0,0.019999999999999983,0,0)" xlink:href="#aJ"/><use transform="matrix(0.019999999999999983,0,0,0.019999999999999983,12.13999999999999,0)" xlink:href="#aK"/><use transform="matrix(0.019999999999999983,0,0,0.019999999999999983,19.679999999999986,0)" xlink:href="#aL"/><use transform="matrix(0.019999999999999983,0,0,0.019999999999999983,29.03999999999998,0)" xlink:href="#aM"/><use transform="matrix(0.019999999999999983,0,0,0.019999999999999983,40.79999999999997,0)" xlink:href="#aN"/></g><path fill="#333" d="M878-441c-104 35-177 66-289 117 1 57 2 141 3 189h-77c3-38 4-102 4-154-92 50-156 101-156 166 0 78 77 89 179 89 77 0 183-9 270-24l-2 81C627 35 282 94 283-112c0-117 118-191 233-251-10-41-46-61-89-61-128 6-195 93-261 177l-68-51c126-122 191-224 228-302-66 0-130-1-204-6v-75c82 8 153 12 232 9 14-44 23-89 25-123l82 7c-7 28-16 69-30 114 101-5 209-14 303-30l-1 74c-98 15-220 24-328 28-22 51-53 106-89 152 87-54 243-58 268 53 102-48 174-74 262-119" id="bl"/><use transform="matrix(0.019999999999999983,0,0,0.019999999999999983,0,0)" xlink:href="#bl" id="p"/><path fill="#333" d="M251-664H144v396h107v-396zm67-69v534H144v93H78v-627h240zm637 380v71H689v262c0 47-12 67-42 80-31 12-81 14-164 13-4-20-16-51-28-71 63 2 121 1 136 1 18 0 25-6 25-23v-262H361v-71h255v-350c-76 9-155 16-228 21-2-17-12-44-20-61 174-14 381-40 497-74l51 59c-63 18-143 33-227 45v360h266zM400-622l62-20c38 73 70 169 80 233l-66 22c-9-64-40-162-76-235zm407 238l-59-21c32-65 73-175 94-252l72 21c-32 84-73 188-107 252" id="bm"/><use transform="matrix(0.019999999999999983,0,0,0.019999999999999983,0,0)" xlink:href="#bm" id="q"/><path fill="#333" d="M871-640l-52 20c-19-45-45-105-67-143l50-17c20 37 52 99 69 140zM93-659c110-3 292-34 371-60l24 72c-13 5-38 11-52 18-63 47-213 234-213 417 0 136 86 190 182 190 206 0 323-239 254-604-8-23-16-47-24-72l77-24c25 120 84 282 211 409l-59 62c-45-55-85-115-122-185 21 250-83 497-340 497-159 0-257-103-257-262 0-170 97-329 178-413-78 13-151 25-218 39zm762-141l49-19c22 37 52 98 71 140l-52 19c-19-45-45-103-68-140" id="bn"/><use transform="matrix(0.019999999999999983,0,0,0.019999999999999983,0,0)" xlink:href="#bn" id="r"/><path fill="#333" d="M814-336h76V74h-76V14H190v62h-74v-412h74v277h267v-341H154v-342h74v270h229v-359h76v359h240v-270h77v342H533v341h281v-277" id="bo"/><use transform="matrix(0.019999999999999983,0,0,0.019999999999999983,0,0)" xlink:href="#bo" id="s"/><path fill="#333" d="M480-234c58 0 96-47 87-141-35-101-190-70-188 43 0 62 46 98 101 98zm63-428c0-52-3-88-8-127h91c-4 45-6 72-6 126 117 0 257 1 305 1l-1 75c-54-3-163-5-304-5 0 56 1 117 2 162 21 34 32 78 32 127 0 134-65 283-295 352l-69-67c130-30 222-84 263-172-106 64-250-1-249-141 0-120 119-204 241-162 0-29 0-64-1-98-150 1-318 8-442 17l-2-78c110-2 296-8 443-10" id="bp"/><use transform="matrix(0.019999999999999983,0,0,0.019999999999999983,0,0)" xlink:href="#bp" id="t"/><path fill="#333" d="M537-408v-75c105-10 244-12 352 0l-2 76c-108-15-237-15-350-1zm64-260v79c-65 15-136 26-205 34-40 192-116 433-186 585L122 1c75-137 152-365 191-548-68 5-143 3-205-1l-3-78c86 10 139 7 225 3 12-64 21-106 18-169l97 8c-14 52-22 100-33 152 64-8 129-20 189-36zM487-249l75 7C540-123 518-71 711-61c64 0 133-8 193-19l-3 81c-53 7-119 13-191 13-156 0-238-48-238-146 0-38 6-75 15-117" id="bq"/><use transform="matrix(0.019999999999999983,0,0,0.019999999999999983,0,0)" xlink:href="#bq" id="u"/><path fill="#333" d="M330-495c32 88 59 151 96 207 42-70 85-173 115-275-77 4-147 27-211 68zm-94 382c49 0 100-49 144-107-44-65-74-131-112-228-65 62-106 152-106 229 0 66 29 106 74 106zm6-407c-22-60-38-125-62-180l83-26c12 59 24 107 43 163 84-49 168-69 254-70 11-46 22-91 21-146l87 8c-12 53-20 94-33 144 159 27 268 149 268 319 0 197-141 318-353 347l-48-71c206-18 321-127 321-279 0-128-80-225-206-247-37 126-89 255-145 337 19 25 40 49 61 69l-62 51c-16-18-32-36-47-56C363-83 302-34 228-34 153-34 89-97 89-214c0-113 63-232 153-306" id="br"/><use transform="matrix(0.019999999999999983,0,0,0.019999999999999983,0,0)" xlink:href="#br" id="v"/><path fill="#333" d="M271-140c44 0 99-66 150-233 25-82 44-176 55-267-190 24-306 187-306 320 0 125 58 180 101 180zm215 91c184-13 336-101 336-305 0-150-95-273-263-287-13 92-32 192-59 285C439-153 360-48 268-48 180-48 91-150 91-313c0-215 192-403 434-403 232 0 380 164 380 364C905-144 768-5 532 26" id="bs"/><use transform="matrix(0.019999999999999983,0,0,0.019999999999999983,0,0)" xlink:href="#bs" id="w"/><path fill="#333" d="M821-517l57 36c-5 9-11 22-13 29-27 99-72 203-146 284C614-53 488 6 361 41l-62-71c230-44 420-190 471-404-210 2-423-3-628 3v-84c199 13 416 3 624 6 23 0 44-2 55-8zM231-662v-83c151 11 323 2 483 5 32 0 67-1 91-5v83c-183-5-389-4-574 0" id="bt"/><use transform="matrix(0.019999999999999983,0,0,0.019999999999999983,0,0)" xlink:href="#bt" id="x"/><path fill="#333" d="M85-376c303-75 547-218 710-405l66 60c-69 70-165 152-268 217 3 176-6 370 6 535h-98c12-146 3-328 6-485-107 59-245 117-376 156" id="bu"/><use transform="matrix(0.019999999999999983,0,0,0.019999999999999983,0,0)" xlink:href="#bu" id="y"/><path fill="#333" d="M835-699l-38 17 49 31c-7 14-11 30-15 50-22 105-70 266-149 369C590-115 471-22 288 35l-68-75c194-48 306-133 390-240 71-91 117-230 131-326-202 1-414-3-611 3v-88c189 13 402 3 601 6 13 0 27 0 43-3-21-38-51-88-73-120l54-23c24 34 60 94 80 132zm-6-135l55-23c25 34 61 94 82 132l-55 24c-22-41-55-98-82-133" id="bv"/><use transform="matrix(0.019999999999999983,0,0,0.019999999999999983,0,0)" xlink:href="#bv" id="z"/><path fill="#333" d="M221-751h92c-5 154-4 327 0 482h-92c7-150 6-329 0-482zm463-7h92c-7 73-3 168-4 248 0 240-32 319-104 405C603-27 503 16 430 41l-65-69c92-23 178-63 240-133 72-83 84-164 84-353-1-80 3-173-5-244" id="bw"/><use transform="matrix(0.019999999999999983,0,0,0.019999999999999983,0,0)" xlink:href="#bw" id="A"/><g id="B"><use transform="matrix(0.026666666666666655,0,0,0.026666666666666655,0,0)" xlink:href="#aJ"/><use transform="matrix(0.026666666666666655,0,0,0.026666666666666655,16.18666666666666,0)" xlink:href="#aK"/><use transform="matrix(0.026666666666666655,0,0,0.026666666666666655,26.239999999999988,0)" xlink:href="#aL"/><use transform="matrix(0.026666666666666655,0,0,0.026666666666666655,38.719999999999985,0)" xlink:href="#aM"/><use transform="matrix(0.026666666666666655,0,0,0.026666666666666655,54.39999999999998,0)" xlink:href="#aN"/></g><path fill="#333" d="M92 0v-543h75l8 78h3c52-51 108-92 182-92 114 0 166 74 166 213V0h-91v-332c0-102-31-145-103-145-56 0-94 28-149 83V0H92" id="bx"/><path fill="#333" d="M303 45C261 172 181 266 37 223l18-73C155 188 210 96 231 1L13-543h95c55 152 111 298 163 454h5c45-155 95-303 143-454h89" id="by"/><g id="C"><use transform="matrix(0.026666666666666655,0,0,0.026666666666666655,0,0)" xlink:href="#be"/><use transform="matrix(0.026666666666666655,0,0,0.026666666666666655,9.01333333333333,0)" xlink:href="#aJ"/><use transform="matrix(0.026666666666666655,0,0,0.026666666666666655,25.19999999999999,0)" xlink:href="#bx"/><use transform="matrix(0.026666666666666655,0,0,0.026666666666666655,41.49333333333331,0)" xlink:href="#by"/></g><path fill="#333" d="M100 0v-733h209c165 0 275 55 275 215 0 155-110 227-270 227H193V0h-93zm93-366h109c129 0 190-47 190-152 0-106-65-140-194-140H193v292" id="bz"/><path fill="#333" d="M360 13C211 13 97-67 97-303v-430h93v433c0 177 75 232 170 232 98 0 175-55 175-232v-433h89v430C624-67 510 13 360 13" id="bA"/><g id="D"><use transform="matrix(0.026666666666666655,0,0,0.026666666666666655,0,0)" xlink:href="#aZ"/><use transform="matrix(0.026666666666666655,0,0,0.026666666666666655,17.013333333333325,0)" xlink:href="#bz"/><use transform="matrix(0.026666666666666655,0,0,0.026666666666666655,33.866666666666646,0)" xlink:href="#bA"/><use transform="matrix(0.026666666666666655,0,0,0.026666666666666655,53.093333333333305,0)" xlink:href="#bk"/></g><path fill="#333" d="M934-553H584c83 171 227 330 384 406-18 15-44 44-55 65-151-83-285-235-375-408v306h190v74H538V76h-77v-186H266v-74h195v-306C369-317 234-166 87-81c-11-18-36-46-53-60 152-79 297-241 381-412H68v-74h393v-209h77v209h396v74" id="bB"/><use transform="matrix(0.019999999999999983,0,0,0.019999999999999983,0,0)" xlink:href="#bB" id="E"/><path fill="#333" d="M254-833l69 21c-24 71-55 143-89 211V75h-71v-553c-27 42-56 81-85 115-8-17-30-56-43-73 88-97 169-246 219-397zm696 269H700c59 167 162 333 270 420-18 13-43 39-56 59-105-96-201-264-262-438v347h161v68H652V71h-72v-179H417v-68h163v-340C516-343 420-179 315-83c-13-17-37-43-54-56 109-87 213-256 274-425H300v-72h280v-197h72v197h298v72" id="bC"/><use transform="matrix(0.019999999999999983,0,0,0.019999999999999983,0,0)" xlink:href="#bC" id="F"/><path fill="#333" d="M545-479h238v-93H545v93zm-1 58c-1 38-4 71-7 99h246v-99H544zm-327-58h248v-93H217v93zm0 157h240c5-33 7-66 8-99H217v99zm-4 120l55-46c35 39 76 73 124 104 23-30 41-69 54-118H142v-370h323v-78H63v-63h874v63H545v78h313v434h-75v-64H526c-14 62-37 114-68 155C586-43 747-8 942-2l-11 69C730 61 556 20 410-56 340 4 229 45 76 67L59 0c132-21 227-52 284-95-52-34-95-70-130-107" id="bD"/><use transform="matrix(0.019999999999999983,0,0,0.019999999999999983,0,0)" xlink:href="#bD" id="G"/><path fill="#333" d="M503-732v62H65v-62h184v-101h72v101h182zM388-510l-60-13c18-40 41-102 50-145l68 16c-19 50-39 106-58 142zm-162-14l-62 17c-4-39-20-99-39-144l58-15c21 45 38 104 43 142zm253 401l-44 55c-21-25-72-74-114-112V74h-72v-263C200-112 138-40 82 4 70-13 48-37 32-50c72-47 151-137 201-225H54v-63h195v-105H51v-63h464v63H321v105h186v63H321v24c38 28 135 107 158 128zm477-379v70H844V70h-73v-502H622c1 169-14 363-159 513-9-16-36-42-53-52C537-95 551-268 551-408v-348l54 17c102-22 214-54 278-86l60 55c-85 38-210 68-321 90v178h334" id="bE"/><use transform="matrix(0.019999999999999983,0,0,0.019999999999999983,0,0)" xlink:href="#bE" id="H"/><path fill="#333" d="M686-473l32-2c19-25 40-55 60-88-25-32-67-72-105-101l31-41c7 6 15 11 23 18 22-43 47-99 61-140l58 23c-25 50-57 108-82 148 16 16 32 31 44 45 24-41 46-82 62-117l54 26c-42 71-95 157-143 223l106-7c-9-20-19-40-29-57l46-19c27 46 55 106 62 144l-48 23c-2-12-6-26-12-41-75 8-146 13-209 19zm-345 10l35-2c21-28 44-62 67-97-26-32-69-73-106-102l31-41 24 18c22-43 46-99 60-140l58 23c-26 49-56 108-81 149 17 15 32 30 43 44 24-41 46-82 62-117l54 26c-43 74-99 165-150 233l98-6c-8-22-17-43-27-62l46-17c26 45 49 106 56 144l-49 21c-2-10-4-22-8-34-72 6-141 13-202 19zm482 210l64 24c-28 60-68 114-116 161 28 53 61 82 99 82 29 0 40-24 45-114 13 14 36 27 51 33C954 45 932 78 866 78c-60 0-107-37-145-103-51 40-110 74-174 100-9-12-27-35-40-47C578 0 642-37 694-82c-21-52-38-115-51-187H487c-1 20-4 39-6 58 49 30 107 70 138 98l-42 51c-24-23-66-56-108-85-21 90-58 168-131 221-10-15-29-38-45-49 91-63 118-175 128-294h-71v-56l-31 44c-13-32-44-93-71-143V75h-67v-462c-30 106-69 208-110 272-8-18-25-46-37-62 57-83 113-241 140-376H55v-68h126v-216h67v216h108v68H248v45c26 36 94 145 109 173l-4 6h280c-22-145-31-319-32-507h67c-2 195 9 368 30 507h136c-24-20-56-43-84-58l35-36c38 20 83 49 106 72l-21 22h82v60H708c10 53 22 99 36 138 33-37 60-78 79-122" id="bF"/><use transform="matrix(0.019999999999999983,0,0,0.019999999999999983,0,0)" xlink:href="#bF" id="I"/><path fill="#333" d="M842-401H671c-95 0-120-22-120-104v-330h73v167c85-28 174-64 231-94l50 54c-79 37-185 73-281 101v101c0 32 8 38 53 38h159c38 0 45-16 49-115 17 12 46 24 68 29-9 121-32 153-111 153zM173-185h211v-92H173v92zm211-236H173v86h211v-86zm73-62V-9c0 92-66 79-168 82-4-19-14-49-24-67 47 2 89 1 103 0 13 0 16-3 16-16v-118H173V75h-69v-558h353zM334-743l61-24c52 69 109 161 130 222l-63 28c-6-17-15-37-26-59-140 8-284 15-386 21l-7-70c23-1 48-2 76-3 34-63 71-148 92-209l75 18c-27 61-59 131-90 188l205-9c-21-36-44-72-67-103zM680 2h164c42 0 49-20 54-132 17 12 46 24 67 28C955 32 933 67 850 67H673c-96 0-122-22-122-104v-336h73v158c91-29 186-68 243-105l49 56c-77 44-191 82-292 111v116c0 33 9 39 56 39" id="bG"/><use transform="matrix(0.019999999999999983,0,0,0.019999999999999983,0,0)" xlink:href="#bG" id="J"/><path fill="#979ea8" d="M191-298h222c-37-120-75-237-109-360h-4c-33 124-71 241-109 360zM506 0l-70-224H168L97 0H3l249-733h103L604 0h-98" id="bH"/><path fill="#979ea8" d="M263 13c-116 0-155-72-155-181v-301H27v-69l85-5 11-152h76v152h147v74H199v303c0 67 21 105 84 105 19 0 44-7 62-14l18 68c-31 10-67 20-100 20" id="bI"/><path fill="#979ea8" d="M234 13C157 13 83-19 31-62l45-60c47 38 96 64 161 64 72 0 107-38 107-85 0-55-64-80-124-103-76-28-162-65-162-157 0-86 69-154 187-154 67 0 126 28 169 61l-44 59c-38-28-76-48-125-48-68 0-99 36-99 78 0 52 59 71 120 94 79 30 166 62 166 165 0 88-70 161-198 161" id="bJ"/><path fill="#979ea8" d="M100 0v-733h423v78H193v230h278v79H193v267h341V0H100" id="bK"/><path fill="#979ea8" d="M17 0l214-379L31-733h102c54 101 102 192 158 294h4c48-106 98-194 150-294h97L342-374 556 0H454c-59-108-112-205-171-316h-4C225-203 171-108 114 0H17" id="bL"/><g id="K"><use transform="matrix(0.024444444444444418,0,0,0.024444444444444418,0,0)" xlink:href="#bH"/><use transform="matrix(0.024444444444444418,0,0,0.024444444444444418,14.837777777777761,0)" xlink:href="#bI"/><use transform="matrix(0.024444444444444418,0,0,0.024444444444444418,24.053333333333306,0)" xlink:href="#bJ"/><use transform="matrix(0.024444444444444418,0,0,0.024444444444444418,35.4933333333333,0)" xlink:href="#bK"/><use transform="matrix(0.024444444444444418,0,0,0.024444444444444418,49.86666666666662,0)" xlink:href="#bL"/></g><path fill="#979ea8" d="M540-355v107h245v-107H540zm-325 0v107h245v-107H215zm245-157H215v100h245v-100zm80 0v100h245v-100H540zM57-718h403v-99h80v99h403v63H540v83h320v384H540v90h413v63H540V97h-80V-35H47v-63h413v-90H140v-384h320v-83H57v-63" id="bM"/><use transform="matrix(0.024444444444444418,0,0,0.024444444444444418,0,0)" xlink:href="#bM" id="L"/><path fill="#979ea8" d="M940-694H529v132h364V-9c0 43-10 64-41 75-32 12-85 12-163 11-4-18-15-48-25-66 60 2 117 2 135 1 17-1 21-6 21-21v-483H529v309h124v-228h66v351h-66v-58H339v72h-63v-365h63v228h118v-309H181V78h-71v-640h347v-132H61v-72h879v72" id="bN"/><path fill="#979ea8" d="M100 0v-733h209c165 0 275 55 275 215 0 155-110 227-270 227H193V0h-93zm93-366h109c129 0 190-47 190-152 0-106-65-140-194-140H193v292" id="bO"/><path fill="#979ea8" d="M100 0v-733h93V0h-93" id="bP"/><g id="M"><use transform="matrix(0.024444444444444418,0,0,0.024444444444444418,0,0)" xlink:href="#bN"/><use transform="matrix(0.024444444444444418,0,0,0.024444444444444418,24.444444444444418,0)" xlink:href="#bO"/><use transform="matrix(0.024444444444444418,0,0,0.024444444444444418,39.89333333333329,0)" xlink:href="#bP"/></g><path fill="#979ea8" d="M239 197C147 47 92-114 92-311c0-196 55-358 147-507l57 26c-171 284-171 678 0 962" id="bQ"/><path fill="#979ea8" d="M92 0v-543h75l8 78h3c52-51 108-92 182-92 114 0 166 74 166 213V0h-91v-332c0-102-31-145-103-145-56 0-94 28-149 83V0H92" id="bR"/><path fill="#979ea8" d="M303 45C261 172 181 266 37 223l18-73C155 188 210 96 231 1L13-543h95c55 152 111 298 163 454h5c45-155 95-303 143-454h89" id="bS"/><g id="N"><use transform="matrix(0.024444444444444418,0,0,0.024444444444444418,0,0)" xlink:href="#bQ"/><use transform="matrix(0.024444444444444418,0,0,0.024444444444444418,8.262222222222213,0)" xlink:href="#bH"/><use transform="matrix(0.024444444444444418,0,0,0.024444444444444418,23.099999999999973,0)" xlink:href="#bR"/><use transform="matrix(0.024444444444444418,0,0,0.024444444444444418,38.03555555555551,0)" xlink:href="#bS"/></g><path fill="#979ea8" d="M377 13C195 13 58-128 58-366c0-237 139-381 325-381 89 0 159 44 201 91l-50 60c-38-41-87-70-150-70-139 0-231 114-231 297 0 185 88 301 228 301 70 0 123-31 170-82l51 58C544-25 472 13 377 13" id="bT"/><path fill="#979ea8" d="M360 13C211 13 97-67 97-303v-430h93v433c0 177 75 232 170 232 98 0 175-55 175-232v-433h89v430C624-67 510 13 360 13" id="bU"/><path fill="#979ea8" d="M99 197l-56-27c171-284 171-678 0-962l56-26c93 149 148 311 148 507 0 197-55 358-148 508" id="bV"/><g id="O"><use transform="matrix(0.024444444444444418,0,0,0.024444444444444418,0,0)" xlink:href="#bT"/><use transform="matrix(0.024444444444444418,0,0,0.024444444444444418,15.595555555555539,0)" xlink:href="#bO"/><use transform="matrix(0.024444444444444418,0,0,0.024444444444444418,31.044444444444412,0)" xlink:href="#bU"/><use transform="matrix(0.024444444444444418,0,0,0.024444444444444418,48.66888888888883,0)" xlink:href="#bV"/></g><path fill="#333" d="M303 13C170 13 51-91 51-271c0-181 119-286 252-286s252 105 252 286C555-91 436 13 303 13zm0-76c94 0 158-83 158-208s-64-210-158-210-157 85-157 210S209-63 303-63" id="bW"/><g id="P"><use transform="matrix(0.026666666666666655,0,0,0.026666666666666655,0,0)" xlink:href="#aJ"/><use transform="matrix(0.026666666666666655,0,0,0.026666666666666655,16.18666666666666,0)" xlink:href="#aK"/><use transform="matrix(0.026666666666666655,0,0,0.026666666666666655,26.239999999999988,0)" xlink:href="#aL"/><use transform="matrix(0.026666666666666655,0,0,0.026666666666666655,38.719999999999985,0)" xlink:href="#aM"/><use transform="matrix(0.026666666666666655,0,0,0.026666666666666655,54.39999999999998,0)" xlink:href="#aN"/><use transform="matrix(0.026666666666666655,0,0,0.026666666666666655,69.67999999999996,0)" xlink:href="#aY"/><use transform="matrix(0.026666666666666655,0,0,0.026666666666666655,77.09333333333329,0)" xlink:href="#aZ"/><use transform="matrix(0.026666666666666655,0,0,0.026666666666666655,94.10666666666661,0)" xlink:href="#bW"/><use transform="matrix(0.026666666666666655,0,0,0.026666666666666655,110.26666666666662,0)" xlink:href="#bd"/><use transform="matrix(0.026666666666666655,0,0,0.026666666666666655,120.61333333333327,0)" xlink:href="#bc"/></g><path fill="#333" d="M536-321h287v-265H536v265zm-363 0h286v-265H173v265zm363-338h363v468h-76v-57H536V76h-77v-324H173v62h-73v-473h359v-178h77v178" id="bX"/><use transform="matrix(0.019999999999999983,0,0,0.019999999999999983,0,0)" xlink:href="#bX" id="Q"/><path fill="#333" d="M406-457l44-49c16 11 34 24 51 37 35-44 75-100 104-149H391v-68h249v-148h73v148h241v68H691l4 2c-44 61-99 132-145 184 33 27 65 54 89 77 64-57 119-122 158-189l65 26c-95 158-254 297-430 381-9-17-30-41-47-54 69-30 137-71 198-118-47-46-118-106-177-148zm-5 162l-42 57c-17-34-56-100-88-152V75h-70v-465c-34 109-79 214-126 279-8-20-26-49-39-66 63-84 127-240 158-377H55v-69h146v-214h70v214h117v69H271v76c30 37 111 154 130 183zm478-68l67 30c-42 71-96 135-160 191C850-85 924-14 964 33l-60 46C868 33 798-39 733-98 639-25 527 33 404 75c-10-18-28-43-45-59 227-71 419-206 520-379" id="bY"/><use transform="matrix(0.019999999999999983,0,0,0.019999999999999983,0,0)" xlink:href="#bY" id="R"/><path fill="#333" d="M423-482c134-82 232-116 325-186l43 73c-109 65-238 115-377 205-92 60-147 125-147 200 0 82 78 133 234 133 108 0 240-14 317-34v90c-75 13-189 24-313 24-186 0-321-56-321-204 0-102 65-183 171-257-46-81-98-197-144-305l79-32c40 108 90 215 133 293" id="bZ"/><use transform="matrix(0.019999999999999983,0,0,0.019999999999999983,0,0)" xlink:href="#bZ" id="S"/><path fill="#333" d="M928-524l-45 66c-53-45-160-106-226-136l39-62c72 32 185 96 232 132zM568-674l2 74c-52 15-114 28-179 36-49 140-137 312-216 419l-78-40c83-96 167-254 212-370-67 5-134 3-202 0l-6-75c72 9 154 9 232 2 15-55 29-118 31-171l89 8c-10 36-23 96-39 153 52-8 104-20 154-36zM512-27c102 0 114-56 107-141-77-30-221-14-221 64 0 46 37 77 114 77zm94-458h80c-6 101 3 156 6 268 85 31 154 80 205 124l-43 68c-42-38-95-82-159-113C706-26 661 46 522 46 413 46 324 1 324-97c0-122 156-174 292-141-3-81-8-178-10-247" id="ca"/><use transform="matrix(0.019999999999999983,0,0,0.019999999999999983,0,0)" xlink:href="#ca" id="T"/><path fill="#333" d="M368-110c-5 72 127 88 210 71-9-78-56-132-131-132-45 0-79 27-79 61zM241-735c111 6 360 0 462-17l46 58c-91 57-203 166-313 256 45-15 90-21 134-21 165 0 284 100 284 234C854-65 721 39 512 39c-135 0-218-60-218-142 0-68 61-130 153-130 124 0 191 83 204 175 78-30 123-87 123-168 0-97-98-168-223-168-163 0-253 69-379 197l-58-59c184-153 327-270 494-416-91 5-285 10-365 20" id="cb"/><use transform="matrix(0.019999999999999983,0,0,0.019999999999999983,0,0)" xlink:href="#cb" id="U"/><path fill="#333" d="M250 13C136 13 85-61 85-199v-344h91v333c0 101 30 144 102 144 56 0 95-27 147-92v-385h91V0h-76l-7-85h-3c-51 59-105 98-180 98" id="cc"/><path fill="#333" d="M275 250c-133 0-225-52-225-146 0-46 30-90 81-123v-4c-29-17-50-46-50-89 0-45 33-81 61-101v-4c-36-29-71-81-71-146-2-145 144-228 280-180h189v70H429c26 25 44 65 44 112 4 144-147 228-279 170-52 42-57 131 60 124h106c126 0 189 40 189 129 0 101-106 188-274 188zm0-484c62 0 115-50 115-129s-51-127-115-127-116 47-116 127c0 79 53 129 116 129zm13 422c104 0 173-55 173-112 0-103-183-49-275-76-106 75-57 194 102 188" id="cd"/><path fill="#333" d="M92 0v-543h91V0H92zm46-655c-36 0-63-25-63-59 0-37 27-59 63-59s63 22 63 59c0 34-27 59-63 59" id="ce"/><path fill="#333" d="M100 0v-733h93v307h342v-307h92V0h-92v-346H193V0h-93" id="cf"/><g id="V"><use transform="matrix(0.026666666666666655,0,0,0.026666666666666655,0,0)" xlink:href="#aJ"/><use transform="matrix(0.026666666666666655,0,0,0.026666666666666655,16.18666666666666,0)" xlink:href="#aK"/><use transform="matrix(0.026666666666666655,0,0,0.026666666666666655,26.239999999999988,0)" xlink:href="#aL"/><use transform="matrix(0.026666666666666655,0,0,0.026666666666666655,38.719999999999985,0)" xlink:href="#aM"/><use transform="matrix(0.026666666666666655,0,0,0.026666666666666655,54.39999999999998,0)" xlink:href="#aN"/><use transform="matrix(0.026666666666666655,0,0,0.026666666666666655,69.67999999999996,0)" xlink:href="#aY"/><use transform="matrix(0.026666666666666655,0,0,0.026666666666666655,77.09333333333329,0)" xlink:href="#bz"/><use transform="matrix(0.026666666666666655,0,0,0.026666666666666655,93.94666666666662,0)" xlink:href="#bb"/><use transform="matrix(0.026666666666666655,0,0,0.026666666666666655,101.54666666666661,0)" xlink:href="#cc"/><use transform="matrix(0.026666666666666655,0,0,0.026666666666666655,117.73333333333325,0)" xlink:href="#cd"/><use transform="matrix(0.026666666666666655,0,0,0.026666666666666655,132.74666666666658,0)" xlink:href="#ce"/><use transform="matrix(0.026666666666666655,0,0,0.026666666666666655,140.07999999999993,0)" xlink:href="#bx"/><use transform="matrix(0.026666666666666655,0,0,0.026666666666666655,156.37333333333325,0)" xlink:href="#cf"/><use transform="matrix(0.026666666666666655,0,0,0.026666666666666655,175.78666666666658,0)" xlink:href="#bW"/><use transform="matrix(0.026666666666666655,0,0,0.026666666666666655,191.94666666666657,0)" xlink:href="#aL"/><use transform="matrix(0.026666666666666655,0,0,0.026666666666666655,204.42666666666656,0)" xlink:href="#aK"/></g><use transform="matrix(0.019999999999999983,0,0,0.019999999999999983,0,0)" xlink:href="#aX" id="W"/><path fill="#333" d="M429-632h271c27 0 49-3 65-9l66 40c-8 14-18 37-23 53-27 101-88 236-177 345C540-92 420-1 233 69L160 3c184-54 309-144 400-251 78-91 139-221 159-312H382c-61 85-144 174-254 246l-69-51c172-103 270-249 314-338 10-18 25-54 31-80l92 31c-28 46-43 79-67 120zm283-145l53-23c25 36 61 96 82 137l-54 24c-20-40-54-101-81-138zm110-40l53-23c26 37 65 99 83 136l-53 24c-22-43-55-100-83-137" id="cg"/><use transform="matrix(0.019999999999999983,0,0,0.019999999999999983,0,0)" xlink:href="#cg" id="X"/><use transform="matrix(0.019999999999999983,0,0,0.019999999999999983,0,0)" xlink:href="#aU" id="Y"/><path fill="#333" d="M936-739l-41 45c-30-28-91-68-141-93l39-40c51 22 113 60 143 88zM370-467l46 34c-26 37-55 78-79 108 26 32 50 62 59 75l-44 50c-19-31-61-89-96-136V77h-69v-368c-38 46-77 87-115 119-7-18-27-52-38-63 97-77 199-211 256-346H56v-68h128v-184h69v184c27-1 60 3 83-3l40 25c-26 77-64 153-107 222 11 11 23 26 37 42 22-32 49-73 64-104zm492-1H714v107h148v-107zM714-191h148v-110H714v110zm-216 0h145v-110H498v110zm145-277H498v107h145v-107zm310-157H714v94h217V-2c1 81-50 78-138 79-4-18-15-48-24-65 37 1 68 1 79 0 11 0 14-3 14-14v-128H714V72h-71v-202H498V76h-69v-607h214v-94H397v-67h246v-144h71v144h239v67" id="ch"/><use transform="matrix(0.019999999999999983,0,0,0.019999999999999983,0,0)" xlink:href="#ch" id="Z"/><path fill="#333" d="M177-296v172c58-12 121-26 187-40v-132H177zm187-424H177v146h187v-146zm0 357v-144H177v144h187zm125 172l5 67C338-87 170-48 51-21L38-96l71-14v-678h325v609zm212-420h226s-1 28-1 37c-10 419-20 561-53 605-43 56-108 37-209 37-2-22-9-52-22-71 57 4 109 4 130 4 17 1 28-2 37-15 25-30 36-162 45-526H698C683-280 628-55 426 79c-11-18-35-44-54-55C562-95 612-301 626-540H467v-71h162c3-73 3-148 3-225h72c0 77 0 152-3 225" id="ci"/><use transform="matrix(0.019999999999999983,0,0,0.019999999999999983,0,0)" xlink:href="#ci" id="aa"/><use transform="matrix(0.019999999999999983,0,0,0.019999999999999983,0,0)" xlink:href="#bG" id="ab"/><path fill="#333" d="M894 96C774-26 695-185 695-380s79-354 199-476l60 31C839-706 768-558 768-380S839-54 954 65" id="cj"/><use transform="matrix(0.019999999999999983,0,0,0.019999999999999983,0,0)" xlink:href="#cj" id="ac"/><path fill="#333" d="M805-665l67 40c-8 14-18 37-24 53-27 100-88 236-177 344C580-117 461-25 273 44l-72-65c183-54 308-145 399-251 78-92 139-221 159-312H421c-60 84-144 173-253 246l-69-52c173-103 271-248 314-338 11-17 25-53 31-79l93 31c-30 46-43 79-69 120h272c27 0 49-3 65-9" id="ck"/><use transform="matrix(0.019999999999999983,0,0,0.019999999999999983,0,0)" xlink:href="#ck" id="ad"/><path fill="#333" d="M749-708l51 39c-6 8-19 30-25 44-34 86-97 203-168 293 105 90 227 220 292 298l-70 61c-67-88-173-206-275-297C447-155 312-45 164 22l-64-67c262-111 480-315 578-575-161 2-340-5-491 5v-91c148 14 328 4 487 7 33 0 59-4 75-9" id="cl"/><use transform="matrix(0.019999999999999983,0,0,0.019999999999999983,0,0)" xlink:href="#cl" id="ae"/><use transform="matrix(0.019999999999999983,0,0,0.019999999999999983,0,0)" xlink:href="#aW" id="af"/><path fill="#333" d="M783-697c0 36 29 66 65 66 37 0 67-30 67-66s-30-67-67-67c-36 0-65 31-65 67zm-46 0c0-62 50-113 111-113 62 0 113 51 113 113s-51 112-113 112c-61 0-111-50-111-112zM64-29c133-179 215-386 252-642l89 18c-30 115-51 238-109 385-37 92-91 195-147 275zM823 5c-56-217-160-484-258-660l81-27c93 170 206 449 266 658" id="cm"/><use transform="matrix(0.019999999999999983,0,0,0.019999999999999983,0,0)" xlink:href="#cm" id="ag"/><path fill="#333" d="M102-335v-98c214 10 463 3 687 5 50 0 86-3 108-5v98c-206-10-441-3-656-5-55 0-108 2-139 5" id="cn"/><path fill="#333" d="M341-2l-68 58C209-24 123-109 52-167l65-57C189-166 279-75 341-2" id="co"/><g id="ah"><use transform="matrix(0.019999999999999983,0,0,0.019999999999999983,0,0)" xlink:href="#cn"/><use transform="matrix(0.019999999999999983,0,0,0.019999999999999983,19.799999999999983,0)" xlink:href="#co"/></g><path fill="#333" d="M62-282c96-78 170-185 268-300 53-63 95-70 167-10 155 140 301 308 448 474l-65 71C753-204 589-393 460-514c-41-34-55-34-89 8-74 92-169 210-234 300" id="cp"/><use transform="matrix(0.019999999999999983,0,0,0.019999999999999983,0,0)" xlink:href="#cp" id="ai"/><path fill="#333" d="M141 24L66-26c84-60 144-149 174-246 29-92 30-291 30-402 0-30-3-52-7-73h92c-10 135-2 368-36 497-30 107-94 205-178 274zm436-1l-53-44c4-16 7-36 7-56v-599c0-38-5-66-6-74h92c-9 207-2 437-4 651 92-42 215-133 291-246l48 68C866-160 727-58 611 0c-15 8-24 15-34 23" id="cq"/><use transform="matrix(0.019999999999999983,0,0,0.019999999999999983,0,0)" xlink:href="#cq" id="aj"/><use transform="matrix(0.019999999999999983,0,0,0.019999999999999983,0,0)" xlink:href="#cn" id="ak"/><path fill="#333" d="M306 13C162 13 51-91 51-271c0-181 123-286 262-286 71 0 120 30 159 64l-47 61c-32-29-65-49-109-49-98 0-170 85-170 210S214-63 314-63c50 0 94-23 128-54l39 61c-48 44-110 69-175 69" id="cr"/><path fill="#333" d="M106-856c120 122 199 281 199 476S226-26 106 96L46 65C161-54 232-202 232-380S161-706 46-825" id="cs"/><g id="al"><use transform="matrix(0.019999999999999983,0,0,0.019999999999999983,0,0)" xlink:href="#bc"/><use transform="matrix(0.019999999999999983,0,0,0.019999999999999983,11.079999999999991,0)" xlink:href="#aK"/><use transform="matrix(0.019999999999999983,0,0,0.019999999999999983,18.619999999999983,0)" xlink:href="#cr"/><use transform="matrix(0.019999999999999983,0,0,0.019999999999999983,28.799999999999976,0)" xlink:href="#cs"/></g><path fill="#979ea8" d="M638 45C545-81 359-263 229-356l65-52c37 27 119 93 187 154 147-110 262-257 312-347-228 3-472-7-690 6v-90c28 4 67 8 102 8h596c28 0 50-3 64-8l64 51c-10 11-19 22-25 31-72 117-199 280-364 406 60 60 131 135 171 184" id="ct"/><use transform="matrix(0.024444444444444418,0,0,0.024444444444444418,0,0)" xlink:href="#ct" id="am"/><path fill="#979ea8" d="M483-576c17 40 66 172 79 216l-74 26c-11-45-57-172-78-217zM296 7c234-64 436-272 463-554l86 27c-36 132-72 252-157 357C596-46 474 32 362 75zm-45-533c20 43 72 174 91 226l-76 28c-15-52-69-190-89-225" id="cu"/><use transform="matrix(0.024444444444444418,0,0,0.024444444444444418,0,0)" xlink:href="#cu" id="an"/><path fill="#979ea8" d="M871-652c36 0 66-30 66-66s-30-67-66-67c-37 0-66 31-66 67s29 66 66 66zm-741-39c200 12 425 4 634 5-22-76 35-145 107-145 62 0 112 51 112 113 0 74-71 131-150 106-22 112-70 272-151 380C590-115 471-22 288 35l-68-75c194-48 306-133 390-240 71-91 117-230 131-326-202 1-414-3-611 3v-88" id="cv"/><g id="ao"><use transform="matrix(0.024444444444444418,0,0,0.024444444444444418,0,0)" xlink:href="#cv"/><use transform="matrix(0.024444444444444418,0,0,0.024444444444444418,24.444444444444418,0)" xlink:href="#bO"/><use transform="matrix(0.024444444444444418,0,0,0.024444444444444418,39.89333333333329,0)" xlink:href="#bP"/></g><path fill="#979ea8" d="M246-836l68 25c-59 85-152 177-236 237-10-15-29-41-42-54 78-52 166-138 210-208zm24 202l66 23c-25 44-54 88-87 131V79h-69v-478c-37 40-75 77-113 107-7-15-30-50-42-66 91-67 186-171 245-276zm420 362v254c71 11 184 5 274 6-11 17-22 50-24 70-244 3-406 15-497-182-25 81-61 149-113 204-11-14-41-39-57-51 98-95 131-248 143-439l74 6c-5 63-12 122-22 177 33 104 84 160 151 189v-499H370v-72h155c-21-55-63-135-99-196l61-24c40 62 85 143 105 196l-50 24h236l-56-22c33-55 74-143 96-206l71 26c-30 70-70 148-101 202h152v72H690v196h223v69H690" id="cw"/><use transform="matrix(0.024444444444444418,0,0,0.024444444444444418,0,0)" xlink:href="#cw" id="ap"/><path fill="#979ea8" d="M942-325H589C680-203 828-84 963-26c-16 15-40 43-52 63-133-66-276-191-373-323V76h-77v-360C364-152 222-32 91 33 79 15 55-13 39-28c134-58 281-175 372-297H60v-71h401v-249H107v-71h354v-120h77v120h362v71H538v249h404v71zM188-597l65-25c40 58 81 135 95 187l-70 27c-13-50-51-131-90-189zm528 191l-62-21c34-54 77-139 101-199l76 24c-35 68-79 147-115 196" id="cx"/><use transform="matrix(0.024444444444444418,0,0,0.024444444444444418,0,0)" xlink:href="#cx" id="aq"/><path fill="#979ea8" d="M271-140c44 0 99-66 150-233 25-82 44-176 55-267-190 24-306 187-306 320 0 125 58 180 101 180zm215 91c184-13 336-101 336-305 0-150-95-273-263-287-13 92-32 192-59 285C439-153 360-48 268-48 180-48 91-150 91-313c0-215 192-403 434-403 232 0 380 164 380 364C905-144 768-5 532 26" id="cy"/><path fill="#979ea8" d="M253 0v-655H31v-78h537v78H346V0h-93" id="cz"/><path fill="#979ea8" d="M304 13C200 13 111-29 47-96l55-63c53 55 127 91 203 91 96 0 154-48 154-120 1-113-145-134-228-176-66-33-149-81-149-188 0-113 98-195 231-195 87 0 164 37 216 91l-49 59c-45-42-99-69-167-69-83 0-137 42-137 108 0 112 144 126 226 167 83 42 151 87 151 196 0 116-96 208-249 208" id="cA"/><g id="ar"><use transform="matrix(0.024444444444444418,0,0,0.024444444444444418,0,0)" xlink:href="#cy"/><use transform="matrix(0.024444444444444418,0,0,0.024444444444444418,24.444444444444418,0)" xlink:href="#bH"/><use transform="matrix(0.024444444444444418,0,0,0.024444444444444418,39.28222222222218,0)" xlink:href="#cz"/><use transform="matrix(0.024444444444444418,0,0,0.024444444444444418,53.92444444444438,0)" xlink:href="#cA"/><use transform="matrix(0.024444444444444418,0,0,0.024444444444444418,68.51777777777771,0)" xlink:href="#bO"/><use transform="matrix(0.024444444444444418,0,0,0.024444444444444418,83.96666666666658,0)" xlink:href="#bP"/></g><path fill="#979ea8" d="M15 0l179-283L29-543h98c43 70 84 140 127 210h4c39-71 77-140 116-210h95L304-274 483 0H383c-48-73-92-149-138-224h-5C197-151 154-74 111 0H15" id="cB"/><path fill="#979ea8" d="M301-58c70 0 124-67 124-167 0-99-43-162-132-162-46 0-102 26-150 94 11 152 66 235 158 235zm197-614l-50 57c-29-35-73-56-118-56-100 0-185 77-189 305 45-55 109-89 167-89 124 0 203 77 203 230 0 142-96 238-210 238C160 13 56-108 56-350c0-287 129-397 271-397 76 0 131 32 171 75" id="cC"/><path fill="#979ea8" d="M115-275h224c1-122-3-242 6-358h-4c-64 130-151 240-226 358zm408 0v73h-97V0h-87v-202H20v-60l305-471h101v458h97" id="cD"/><path fill="#979ea8" d="M11 179l300-972h66L78 179H11" id="cE"/><path fill="#979ea8" d="M279 13C144 13 45-69 45-182c0-98 68-166 135-202v-5c-54-37-99-92-99-169 0-112 86-186 201-186 125 0 201 80 201 193 0 77-54 143-98 177v5c64 37 124 92 124 192 0 107-92 190-230 190zm50-411c50-44 76-94 76-148 0-72-46-131-125-131-67 0-116 48-116 119 0 88 79 126 165 160zM281-55c84 0 141-51 141-124 0-98-90-135-194-177-59 38-100 96-100 166 0 78 65 135 153 135" id="cF"/><g id="as"><use transform="matrix(0.024444444444444418,0,0,0.024444444444444418,0,0)" xlink:href="#bQ"/><use transform="matrix(0.024444444444444418,0,0,0.024444444444444418,8.262222222222213,0)" xlink:href="#cB"/><use transform="matrix(0.024444444444444418,0,0,0.024444444444444418,20.43555555555553,0)" xlink:href="#cC"/><use transform="matrix(0.024444444444444418,0,0,0.024444444444444418,34.00222222222219,0)" xlink:href="#cD"/><use transform="matrix(0.024444444444444418,0,0,0.024444444444444418,47.568888888888836,0)" xlink:href="#cE"/><use transform="matrix(0.024444444444444418,0,0,0.024444444444444418,57.15111111111105,0)" xlink:href="#cB"/><use transform="matrix(0.024444444444444418,0,0,0.024444444444444418,69.32444444444437,0)" xlink:href="#cF"/><use transform="matrix(0.024444444444444418,0,0,0.024444444444444418,82.89111111111102,0)" xlink:href="#cC"/><use transform="matrix(0.024444444444444418,0,0,0.024444444444444418,96.45777777777766,0)" xlink:href="#bV"/></g><path fill="#979ea8" d="M100 0v-733h184c225 0 346 131 346 364C630-137 509 0 288 0H100zm93-76h83c173 0 258-108 258-293 0-186-85-289-258-289h-83v582" id="cG"/><path fill="#979ea8" d="M311 13C167 13 51-92 51-271c0-176 119-286 245-286 154-3 234 132 212 307H142c6 116 77 190 180 190 53 0 96-16 136-43l33 60c-48 31-106 56-180 56zM141-315h291c0-110-50-169-135-169-77 0-145 62-156 169" id="cH"/><path fill="#979ea8" d="M217 13C126 13 58-43 58-141c0-118 103-177 334-203 0-70-23-137-112-137-63 0-120 29-163 58l-36-63c50-32 127-71 214-71 132 0 188 89 188 223V0h-75l-8-65h-3c-52 43-113 78-180 78zm26-73c53 0 96-25 149-72v-152c-183 22-245 67-245 137 0 62 42 87 96 87" id="cI"/><path fill="#979ea8" d="M92 0v-543h91V0H92zm46-655c-36 0-63-25-63-59 0-37 27-59 63-59s63 22 63 59c0 34-27 59-63 59" id="cJ"/><path fill="#979ea8" d="M241 5C155 32 92-8 92-108v-688h91v694c3 37 15 43 45 37" id="cK"/><path fill="#979ea8" d="M100 0v-733h112c65 181 131 360 193 545h5c59-186 126-364 190-545h112V0h-87c2-212-8-425 12-622h-4C570-437 502-256 436-74h-62c-66-182-134-363-197-548h-4c18 198 9 411 11 622h-84" id="cL"/><path fill="#979ea8" d="M275 250c-133 0-225-52-225-146 0-46 30-90 81-123v-4c-29-17-50-46-50-89 0-45 33-81 61-101v-4c-36-29-71-81-71-146-2-145 144-228 280-180h189v70H429c26 25 44 65 44 112 4 144-147 228-279 170-52 42-57 131 60 124h106c126 0 189 40 189 129 0 101-106 188-274 188zm0-484c62 0 115-50 115-129s-51-127-115-127-116 47-116 127c0 79 53 129 116 129zm13 422c104 0 173-55 173-112 0-103-183-49-275-76-106 75-57 194 102 188" id="cM"/><path fill="#979ea8" d="M92 0v-543h75l8 99h3c50-86 117-137 212-101l-17 80c-18-7-31-9-53-9-45 0-101 32-137 125V0H92" id="cN"/><g id="at"><use transform="matrix(0.024444444444444418,0,0,0.024444444444444418,0,0)" xlink:href="#cG"/><use transform="matrix(0.024444444444444418,0,0,0.024444444444444418,16.793333333333315,0)" xlink:href="#cH"/><use transform="matrix(0.024444444444444418,0,0,0.024444444444444418,30.335555555555523,0)" xlink:href="#bI"/><use transform="matrix(0.024444444444444418,0,0,0.024444444444444418,39.55111111111107,0)" xlink:href="#cI"/><use transform="matrix(0.024444444444444418,0,0,0.024444444444444418,53.33777777777772,0)" xlink:href="#cJ"/><use transform="matrix(0.024444444444444418,0,0,0.024444444444444418,60.05999999999994,0)" xlink:href="#cK"/><use transform="matrix(0.024444444444444418,0,0,0.024444444444444418,67.02666666666659,0)" xlink:href="#cL"/><use transform="matrix(0.024444444444444418,0,0,0.024444444444444418,86.87555555555545,0)" xlink:href="#cI"/><use transform="matrix(0.024444444444444418,0,0,0.024444444444444418,100.66222222222208,0)" xlink:href="#bR"/><use transform="matrix(0.024444444444444418,0,0,0.024444444444444418,115.59777777777764,0)" xlink:href="#cI"/><use transform="matrix(0.024444444444444418,0,0,0.024444444444444418,129.38444444444428,0)" xlink:href="#cM"/><use transform="matrix(0.024444444444444418,0,0,0.024444444444444418,143.1466666666665,0)" xlink:href="#cH"/><use transform="matrix(0.024444444444444418,0,0,0.024444444444444418,156.6888888888887,0)" xlink:href="#cN"/></g><path fill="#979ea8" d="M100 0v-733h218c149 0 252 50 252 179 0 73-39 137-108 159v5c88 17 150 75 150 175C612-71 498 0 334 0H100zm93-421h109c126 0 177-47 177-121 0-86-59-118-173-118H193v239zm0 347h128c126 0 200-45 200-144 0-91-72-132-200-132H193v276" id="cO"/><path fill="#979ea8" d="M235 0L1-733h97c64 212 127 426 190 639h4c63-213 125-426 189-639h94L342 0H235" id="cP"/><g id="au"><use transform="matrix(0.024444444444444418,0,0,0.024444444444444418,0,0)" xlink:href="#cO"/><use transform="matrix(0.024444444444444418,0,0,0.024444444444444418,16.05999999999998,0)" xlink:href="#cP"/><use transform="matrix(0.024444444444444418,0,0,0.024444444444444418,30.115555555555524,0)" xlink:href="#bK"/></g><path fill="#979ea8" d="M934-553H584c83 171 227 330 384 406-18 15-44 44-55 65-151-83-285-235-375-408v306h190v74H538V76h-77v-186H266v-74h195v-306C369-317 234-166 87-81c-11-18-36-46-53-60 152-79 297-241 381-412H68v-74h393v-209h77v209h396v74" id="cQ"/><use transform="matrix(0.024444444444444418,0,0,0.024444444444444418,0,0)" xlink:href="#cQ" id="av"/><path fill="#979ea8" d="M254-833l69 21c-24 71-55 143-89 211V75h-71v-553c-27 42-56 81-85 115-8-17-30-56-43-73 88-97 169-246 219-397zm696 269H700c59 167 162 333 270 420-18 13-43 39-56 59-105-96-201-264-262-438v347h161v68H652V71h-72v-179H417v-68h163v-340C516-343 420-179 315-83c-13-17-37-43-54-56 109-87 213-256 274-425H300v-72h280v-197h72v197h298v72" id="cR"/><use transform="matrix(0.024444444444444418,0,0,0.024444444444444418,0,0)" xlink:href="#cR" id="aw"/><g id="ax"><use transform="matrix(0.024444444444444418,0,0,0.024444444444444418,0,0)" xlink:href="#bQ"/><use transform="matrix(0.024444444444444418,0,0,0.024444444444444418,8.262222222222213,0)" xlink:href="#cB"/><use transform="matrix(0.024444444444444418,0,0,0.024444444444444418,20.43555555555553,0)" xlink:href="#cC"/><use transform="matrix(0.024444444444444418,0,0,0.024444444444444418,34.00222222222219,0)" xlink:href="#cD"/><use transform="matrix(0.024444444444444418,0,0,0.024444444444444418,47.568888888888836,0)" xlink:href="#cE"/><use transform="matrix(0.024444444444444418,0,0,0.024444444444444418,57.15111111111105,0)" xlink:href="#cB"/><use transform="matrix(0.024444444444444418,0,0,0.024444444444444418,69.32444444444437,0)" xlink:href="#cF"/><use transform="matrix(0.024444444444444418,0,0,0.024444444444444418,82.89111111111102,0)" xlink:href="#cC"/><use transform="matrix(0.024444444444444418,0,0,0.024444444444444418,96.45777777777766,0)" xlink:href="#bV"/></g><path fill="#333" d="M304 13C200 13 111-29 47-96l55-63c53 55 127 91 203 91 96 0 154-48 154-120 1-113-145-134-228-176-66-33-149-81-149-188 0-113 98-195 231-195 87 0 164 37 216 91l-49 59c-45-42-99-69-167-69-83 0-137 42-137 108 0 112 144 126 226 167 83 42 151 87 151 196 0 116-96 208-249 208" id="cS"/><path fill="#333" d="M314 179L15-793h66l299 972h-66" id="cT"/><path fill="#333" d="M92 0v-543h75l8 79h3c47-52 104-93 169-93 83 0 128 40 150 104 56-61 113-104 179-104 112 0 165 74 165 213V0h-91v-332c0-102-32-145-101-145-42 0-86 27-137 83V0h-91v-332c0-102-32-145-101-145-41 0-87 27-137 83V0H92" id="cU"/><path fill="#333" d="M261-346c49 0 104-28 153-98-10-151-66-231-160-231-70 0-124 66-124 166 0 99 44 163 131 163zM58-62l50-57c31 35 76 56 123 56 95 0 177-78 184-306-44 55-107 91-169 91-122 0-202-79-202-231 0-142 96-238 210-238 141 0 246 116 246 349 0 297-128 411-266 411-79 0-135-32-176-75" id="cV"/><path fill="#333" d="M278 13C138 13 49-114 49-369s89-378 229-378c139 0 228 124 228 378 0 255-89 382-228 382zm0-73c83 0 139-93 139-309 0-214-56-304-139-304-84 0-140 90-140 304 0 216 56 309 140 309" id="cW"/><path fill="#333" d="M261 13C147 13 77-35 28-84l45-60c42 42 95 81 180 81 86 0 156-66 156-173 0-105-60-167-152-167-49 0-80 15-122 43l-49-30 23-343h357v78H189l-18 212c32-18 65-29 109-29 122 0 221 72 221 233S385 13 261 13" id="cX"/><g id="ay"><use transform="matrix(0.022222222222222223,0,0,0.022222222222222223,0,0)" xlink:href="#cS"/><use transform="matrix(0.022222222222222223,0,0,0.022222222222222223,13.266666666666667,0)" xlink:href="#cr"/><use transform="matrix(0.022222222222222223,0,0,0.022222222222222223,24.57777777777778,0)" xlink:href="#bc"/><use transform="matrix(0.022222222222222223,0,0,0.022222222222222223,36.88888888888889,0)" xlink:href="#bx"/><use transform="matrix(0.022222222222222223,0,0,0.022222222222222223,50.46666666666667,0)" xlink:href="#ba"/><use transform="matrix(0.022222222222222223,0,0,0.022222222222222223,63,0)" xlink:href="#bd"/><use transform="matrix(0.022222222222222223,0,0,0.022222222222222223,71.62222222222222,0)" xlink:href="#ce"/><use transform="matrix(0.022222222222222223,0,0,0.022222222222222223,77.73333333333333,0)" xlink:href="#bW"/><use transform="matrix(0.022222222222222223,0,0,0.022222222222222223,91.2,0)" xlink:href="#aL"/><use transform="matrix(0.022222222222222223,0,0,0.022222222222222223,101.60000000000001,0)" xlink:href="#cT"/><use transform="matrix(0.022222222222222223,0,0,0.022222222222222223,110.31111111111112,0)" xlink:href="#aJ"/><use transform="matrix(0.022222222222222223,0,0,0.022222222222222223,123.80000000000001,0)" xlink:href="#cc"/><use transform="matrix(0.022222222222222223,0,0,0.022222222222222223,137.2888888888889,0)" xlink:href="#aK"/><use transform="matrix(0.022222222222222223,0,0,0.022222222222222223,145.66666666666666,0)" xlink:href="#bW"/><use transform="matrix(0.022222222222222223,0,0,0.022222222222222223,159.13333333333333,0)" xlink:href="#cU"/><use transform="matrix(0.022222222222222223,0,0,0.022222222222222223,179.7111111111111,0)" xlink:href="#ba"/><use transform="matrix(0.022222222222222223,0,0,0.022222222222222223,192.24444444444444,0)" xlink:href="#aK"/><use transform="matrix(0.022222222222222223,0,0,0.022222222222222223,200.62222222222218,0)" xlink:href="#ce"/><use transform="matrix(0.022222222222222223,0,0,0.022222222222222223,206.7333333333333,0)" xlink:href="#cr"/><use transform="matrix(0.022222222222222223,0,0,0.022222222222222223,218.04444444444442,0)" xlink:href="#cV"/><use transform="matrix(0.022222222222222223,0,0,0.022222222222222223,230.37777777777774,0)" xlink:href="#cW"/><use transform="matrix(0.022222222222222223,0,0,0.022222222222222223,242.7111111111111,0)" xlink:href="#bh"/><use transform="matrix(0.022222222222222223,0,0,0.022222222222222223,255.04444444444445,0)" xlink:href="#cX"/><use transform="matrix(0.022222222222222223,0,0,0.022222222222222223,267.3777777777778,0)" xlink:href="#cT"/><use transform="matrix(0.022222222222222223,0,0,0.022222222222222223,276.0888888888889,0)" xlink:href="#aJ"/><use transform="matrix(0.022222222222222223,0,0,0.022222222222222223,289.5777777777778,0)" xlink:href="#aK"/><use transform="matrix(0.022222222222222223,0,0,0.022222222222222223,297.9555555555556,0)" xlink:href="#aL"/><use transform="matrix(0.022222222222222223,0,0,0.022222222222222223,308.35555555555555,0)" xlink:href="#aM"/><use transform="matrix(0.022222222222222223,0,0,0.022222222222222223,321.4222222222222,0)" xlink:href="#aN"/></g><path fill="#333" d="M517-146L38-334v-73l479-188v79c-129 47-258 95-386 143v4c128 48 257 96 386 143v80" id="cY"/><g id="az"><use transform="matrix(0.022222222222222223,0,0,0.022222222222222223,0,0)" xlink:href="#cS"/><use transform="matrix(0.022222222222222223,0,0,0.022222222222222223,13.266666666666667,0)" xlink:href="#cr"/><use transform="matrix(0.022222222222222223,0,0,0.022222222222222223,24.57777777777778,0)" xlink:href="#bc"/><use transform="matrix(0.022222222222222223,0,0,0.022222222222222223,36.88888888888889,0)" xlink:href="#bx"/><use transform="matrix(0.022222222222222223,0,0,0.022222222222222223,50.46666666666667,0)" xlink:href="#ba"/><use transform="matrix(0.022222222222222223,0,0,0.022222222222222223,63,0)" xlink:href="#bd"/><use transform="matrix(0.022222222222222223,0,0,0.022222222222222223,71.62222222222222,0)" xlink:href="#ce"/><use transform="matrix(0.022222222222222223,0,0,0.022222222222222223,77.73333333333333,0)" xlink:href="#bW"/><use transform="matrix(0.022222222222222223,0,0,0.022222222222222223,91.2,0)" xlink:href="#aL"/><use transform="matrix(0.022222222222222223,0,0,0.022222222222222223,101.60000000000001,0)" xlink:href="#cT"/><use transform="matrix(0.022222222222222223,0,0,0.022222222222222223,110.31111111111112,0)" xlink:href="#cY"/></g><path fill="#333" d="M287-833l71 23c-27 72-63 145-102 214V75h-74v-556c-31 44-65 84-99 119-7-17-29-58-43-74 99-96 191-245 247-397zm671 234H650v143h285v69H650v151h299v70H650V76h-75v-675h-69c-43 80-92 152-142 208-12-13-41-38-58-50 90-93 171-237 220-383l71 19c-16 46-35 91-55 135h416v71" id="cZ"/><use transform="matrix(0.022222222222222223,0,0,0.022222222222222223,0,0)" xlink:href="#cZ" id="aA"/><path fill="#333" d="M473-517h70c54-40 105-83 152-128H473v128zm271 333v-99H339v99h405zM339-21h405v-104H339v104zm603-429H568c-52 37-106 72-161 104h413V72h-76V44H339v32h-73v-346c-60 29-122 56-183 79-9-16-33-46-47-61 145-51 285-117 411-198H58v-67h342v-128H145v-66h255v-125h73v125h247v41c42-42 80-86 114-132l63 34c-70 92-152 176-243 251h288v67" id="da"/><use transform="matrix(0.022222222222222223,0,0,0.022222222222222223,0,0)" xlink:href="#da" id="aB"/><path fill="#333" d="M399-32h410v-246H399v246zm248-638H349c-22 25-45 50-71 73 67 47 143 111 189 161 74-68 137-147 180-234zm237 324V78h-75V36H399v40h-73v-316c-80 47-163 85-246 112-9-20-28-51-44-65 127-37 258-103 371-192-44-51-117-115-183-164-40 32-83 63-131 91-10-17-35-44-52-57 164-89 278-217 336-325l83 17c-17 28-36 57-57 86h282l14-4 49 26c-59 148-157 271-273 369h409" id="db"/><path fill="#333" d="M38-146v-80c129-47 258-95 386-143v-4c-128-48-257-96-386-143v-79l479 188v73" id="dc"/><path fill="#333" d="M235 0L1-733h97c64 212 127 426 190 639h4c63-213 125-426 189-639h94L342 0H235" id="dd"/><path fill="#333" d="M92 0v-796h91c0 111 1 223-3 330 50-50 106-91 180-91 114 0 166 74 166 213V0h-91v-332c0-102-31-145-103-145-56 0-94 28-149 83V0H92" id="de"/><g id="aC"><use transform="matrix(0.022222222222222223,0,0,0.022222222222222223,0,0)" xlink:href="#db"/><use transform="matrix(0.022222222222222223,0,0,0.022222222222222223,22.22222222222222,0)" xlink:href="#dc"/><use transform="matrix(0.022222222222222223,0,0,0.022222222222222223,34.55555555555556,0)" xlink:href="#cT"/><use transform="matrix(0.022222222222222223,0,0,0.022222222222222223,43.266666666666666,0)" xlink:href="#dd"/><use transform="matrix(0.022222222222222223,0,0,0.022222222222222223,56.044444444444444,0)" xlink:href="#bc"/><use transform="matrix(0.022222222222222223,0,0,0.022222222222222223,68.35555555555555,0)" xlink:href="#de"/><use transform="matrix(0.022222222222222223,0,0,0.022222222222222223,81.84444444444445,0)" xlink:href="#ce"/><use transform="matrix(0.022222222222222223,0,0,0.022222222222222223,87.95555555555556,0)" xlink:href="#cr"/><use transform="matrix(0.022222222222222223,0,0,0.022222222222222223,99.26666666666667,0)" xlink:href="#bb"/><use transform="matrix(0.022222222222222223,0,0,0.022222222222222223,105.60000000000001,0)" xlink:href="#bc"/><use transform="matrix(0.022222222222222223,0,0,0.022222222222222223,117.91111111111111,0)" xlink:href="#aL"/><use transform="matrix(0.022222222222222223,0,0,0.022222222222222223,128.31111111111113,0)" xlink:href="#cT"/><use transform="matrix(0.022222222222222223,0,0,0.022222222222222223,137.02222222222224,0)" xlink:href="#cY"/></g><use transform="matrix(0.022222222222222223,0,0,0.022222222222222223,0,0)" xlink:href="#aQ" id="aD"/><g id="aE"><use transform="matrix(0.022222222222222223,0,0,0.022222222222222223,0,0)" xlink:href="#db"/><use transform="matrix(0.022222222222222223,0,0,0.022222222222222223,22.22222222222222,0)" xlink:href="#dc"/></g><use transform="matrix(0.022222222222222223,0,0,0.022222222222222223,0,0)" xlink:href="#ca" id="aF"/><path fill="#333" d="M406-469c124-77 213-105 301-173l40 73c-108 65-214 104-349 192-92 61-147 125-147 200 0 82 78 133 234 133 108 0 240-14 317-34l-1 90c-74 13-189 24-313 24-185 0-321-56-321-204 0-102 65-184 171-258-45-81-97-197-143-303l79-33c39 109 89 215 132 293zm307-283l54-23c25 36 61 97 82 138l-54 24c-20-41-54-101-82-139zm111-40l53-23c27 37 65 99 84 136l-54 25c-21-44-54-101-83-138" id="df"/><use transform="matrix(0.022222222222222223,0,0,0.022222222222222223,0,0)" xlink:href="#df" id="aG"/><path fill="#333" d="M100 0v-733h112c65 181 131 360 193 545h5c59-186 126-364 190-545h112V0h-87c2-212-8-425 12-622h-4C570-437 502-256 436-74h-62c-66-182-134-363-197-548h-4c18 198 9 411 11 622h-84" id="dg"/><path fill="#333" d="M92 229v-772h75l8 62h3c49-40 110-76 173-76 140 0 216 110 216 277C567-22 349 94 181-50c3 91 2 185 2 279H92zm91-349C317-1 471-73 472-279c0-120-40-201-143-201-46 0-93 26-146 75v285" id="dh"/><g id="aH"><use transform="matrix(0.022222222222222223,0,0,0.022222222222222223,0,0)" xlink:href="#db"/><use transform="matrix(0.022222222222222223,0,0,0.022222222222222223,22.22222222222222,0)" xlink:href="#dc"/><use transform="matrix(0.022222222222222223,0,0,0.022222222222222223,34.55555555555556,0)" xlink:href="#cT"/><use transform="matrix(0.022222222222222223,0,0,0.022222222222222223,43.266666666666666,0)" xlink:href="#dg"/><use transform="matrix(0.022222222222222223,0,0,0.022222222222222223,61.31111111111111,0)" xlink:href="#ba"/><use transform="matrix(0.022222222222222223,0,0,0.022222222222222223,73.84444444444445,0)" xlink:href="#dh"/><use transform="matrix(0.022222222222222223,0,0,0.022222222222222223,87.62222222222223,0)" xlink:href="#aL"/><use transform="matrix(0.022222222222222223,0,0,0.022222222222222223,98.02222222222224,0)" xlink:href="#cT"/><use transform="matrix(0.022222222222222223,0,0,0.022222222222222223,106.73333333333336,0)" xlink:href="#cY"/></g><use transform="matrix(0.022222222222222223,0,0,0.022222222222222223,0,0)" xlink:href="#aV" id="aI"/></defs></g></svg>